<mxfile host="app.diagrams.net" agent="Mozilla/5.0 (Windows NT 10.0; Win64; x64) AppleWebKit/537.36 (KHTML, like Gecko) Chrome/126.0.0.0 Safari/537.36" version="24.7.6">
  <diagram name="第 1 页" id="43_Dgz7wFcHfrnSrFh4q">
    <mxGraphModel dx="320" dy="737" grid="1" gridSize="10" guides="1" tooltips="1" connect="1" arrows="1" fold="1" page="1" pageScale="1" pageWidth="827" pageHeight="1169" math="0" shadow="0">
      <root>
        <mxCell id="0" />
        <mxCell id="1" parent="0" />
        <mxCell id="lTusFkphazR6k-LGd3tF-1" value="" style="shape=image;verticalLabelPosition=bottom;labelBackgroundColor=default;verticalAlign=top;aspect=fixed;imageAspect=0;image=data:image/png,iVBORw0KGgoAAAANSUhEUgAAB64AAAF0CAYAAACT5ReQAAAAAXNSR0IArs4c6QAAIABJREFUeAHs3WuQHdV9732nUnVenZd5dcpvklRMDOVjl2+JU3USynWKPMfOY+MYSOLbceKc8/g5RthYSIC4CSEQFxkEGMRNBGRhhBBI3A26ALIkJBAgEBgwIDQ3zU0zGo00l62EWs/zWzP/1tprunv3voz2npkvVVO9L92ru1d/urfo31qrP/GJT3ziEy7jv48//tj9+7//u/87fvy44486wAAGMIABDGAAAxjAAAYwgAEMYAADGMAABjCAAQxgAAMYwAAGMICBag1Y7qwMOu0/5dZTgmsLrKtdGfMDFAMYwAAGMIABDGAAAxjAAAYwgAEMYAADGMAABjCAAQxgAAMYwAAG8gwoxI4D7CnB9X/8x3/Qs5re5RjAAAYwgAEMYAADGMAABjCAAQxgAAMYwAAGMIABDGAAAxjAAAYwMK0GlE3bf2XBNaE1LR/yWj7wHT4wgAEMYAADGMAABjCAAQxgAAMYwAAGMIABDGAAAxjAAAYwgIFGGrDwOgmu1RW7kSugLMBiAAMYwAAGMIABDGAAAxjAAAYwgAEMYAADGMAABjCAAQxgAAMYwEAlA8qqk+Ba44hXWoDvQYUBDGAAAxjAAAYwgAEMYAADGMAABjCAAQxgAAMYwAAGMIABDGAAA400oKzaB9f0tgZWI2FRFp4wgAEMYAADGMAABjCAAQxgAAMYwAAGMIABDGAAAxjAAAYwgIFqDPjgmt7WoKkGDfPiBQMYwAAGMIABDGAAAxjAAAYwgAEMYAADGMAABjCAAQxgAAMYaKQBguvjgGokKMrCEwYwgAEMYAADGMAABjCAAQxgAAMYwAAGMIABDGAAAxjAAAYwUK0BH1xXuxDzAw0DGMAABjCAAQxgAAMYwAAGMIABDGAAAxjAAAYwgAEMYAADGMAABhplgOCaHteuUZgohwsTBjCAAQxgAAMYwAAGMIABDGAAAxjAAAYwgAEMYAADGMAABjBQiwGCa4JrgmsMYAADGMAABjCAAQxgAAMYwAAGMIABDGAAAxjAAAYwgAEMYAADTTVAcA3ApgKspbUFy9BKBwMYwAAGMIABDGAAAxjAAAYwgAEMYAADGMAABjCAAQxgAAOzywDBNcE1wTUGMIABDGAAAxjAAAYwgAEMYAADGMAABjCAAQxgAAMYwAAGMICBphoguAZgUwHSEmZ2tYTheHI8MYABDGAAAxjAAAYwgAEMYAADGMAABjCAAQxgAAMYwAAGajFAcE1wTXCNAQxgAAMYwAAGMIABDGAAAxjAAAYwgAEMYAADGMAABjCAAQxgoKkGCK4B2FSAtbS2YBla6WAAAxjAAAYwgAEMYAADGMAABjCAAQxgAAMYwAAGMIABDGBgdhkguCa4JrjGAAYwgAEMYAADGMAABjCAAQxgAAMYwAAGMIABDGAAAxjAAAYw0FQDBNcAbCpAWsLMrpYwHE+OJwYwgAEMYAADGMAABjCAAQxgAAMYwAAGMIABDGAAAxjAQC0GCK4JrgmuMYABDGAAAxjAAAYwgAEMYAADGMAABjCAAQxgAAMYwAAGMIABDDTVAME1AJsKsJbWFixDKx0MYAADGMAABjCAAQxgAAMYwAAGMIABDGAAAxjAAAYwgAEMzC4DBNcE1wTXGMAABjCAAQxgAAMYwAAGMIABDGAAAxjAAAYwgAEMYAADGMAABppqgOAagE0FSEuY2dUShuPJ8cQABjCAAQxgAAMYwAAGMIABDGAAAxjAAAYwgAEMYAADGKjFAME1wTXBNQYwgAEMYAADGMAABjCAAQxgAAMYwAAGMIABDGAAAxjAAAYwgIGmGiC4BmBTAdbS2oJlaKWDAQxgAAMYwAAGMIABDGAAAxjAAAYwgAEMYAADGMAABjCAgdllgOCa4JrgGgMYwAAGMIABDGAAAxjAAAYwgAEMYAADGMAABjCAAQxgAAMYwEBTDRBcA7CpAGkJM7tawnA8OZ4YwAAGMIABDGAAAxjAAAYwgAEMYAADGMAABjCAAQxgAAO1GCC4JrgmuMYABjCAAQxgAAMYwAAGMIABDGAAAxjAAAYwgAEMYAADGMAABjDQVAME1wBsKsBaWluwDK10MIABDGAAAxjAAAYwgAEMYAADGMAABjCAAQxgAAMYwAAGMDC7DBBcE1wTXGMAAxjAAAYwgAEMYAADGMAABjCAAQxgAAMYwAAGMIABDGAAAxhoqgGCawA2FSAtYWZXSxiOJ8cTAxjAAAYwgAEMYAADGMAABjCAAQxgAAMYwAAGMIABDGCgFgMtHVyXRkfdsT2vuMMb1ruB+1b5P73WZ/qulh1u5DKl8VF3tHO7G3z7fnfotRX+T6/1mb5r5LpqKWtkfNRtO7jD3fveGrd8363+T6/1mb6rpUyW4UKDAQxgAAMYwAAGMIABDGAAAxjAAAYwgAEMYAADGMAABjCAAQw02kBLBtcKpvsuudAdOON0133WN9zAOd90h7/9df+n1/pM32kezdvoSqlU3nDHb13vln91H63+M9e1/gvu0IbPucENp/o/vdZn+k7zaN5K5TX6ewXT39/+Y/fJh09zpz71V+7Pn/2K+5PnvuT/9PrUp77iPrn+ND+P5m30+imPCxUGMIABDGAAAxjAAAYwgAEMYAADGMAABjCAAQxgAAMYwAAGMFCNgZYKrsd6un0Y3XXm19zwWX/nPv7BWc79z3NS//Sd5tG8CrC1bDU7Xsu8Y0c6fRjdsfZz7shjp7qPN33GuS3/NfVP32kezasAW8vWss5qluk80uXD6FMe/7L7481fcp966a/dKbv/JvVP32kezauQW8tWsy7m5UKDAQxgAAMYwAAGMIABDGAAAxjAAAYwgAEMYAADGMAABjCAAQw0ykDLBNfqOd1x5kSv6qywOutz9cbWstPZ+1o9p9vWTvSszgqrsz5Xb2wtO529r9Vz+s83/oXvVZ0VVmd9rt7YWpbe11xYGnVhoRwsYQADGMAABjCAAQxgAAMYwAAGMIABDGAAAxjAAAYwgAEMVGOgJYJrBc5tZ5zuRs75Rmrv6qzAOvz82DkTw4dPR3itwFlDfx978rTU3tVZgXX4uZZVGdMRXitw1tDff/r8X6b2rs4KrMPP/3TrX/qhxQmvuYBUcwFhXrxgAAMYwAAGMIABDGAAAxjAAAYwgAEMYAADGMAABjCAAQw0wkDTg2sN8a3e0vWE1hZgK7xWWY0cNlxDfKu3dD2htQXYKkNlNXLY8M7hLt9bup7Q2gJshdfqea0yG4GLMrhIYQADGMAABjCAAQxgAAMYwAAGMIABDGAAAxjAAAYwgAEMYAADRQw0PbjW86k11LeFz/VOVZbKLLLzRebR86k11LeFz/VOVZbKLLLuIvN8f8ePaxoe3MLqeKphw/XM6yLrZh4uMhjAAAYwgAEMYAADGMAABjCAAQxgAAMYwAAGMIABDGAAAxjAQCMMNDW4PvrKy67rzK81LLS20Ftlqux6K0jDenes/VzDQmsLvVVmI4YMf7Fruzvl8S/XPDx4HFon7x//slPZ9dYfy3ORwgAGMIABDGAAAxjAAAYwgAEMYAADGMAABjCAAQxgAAMYwAAGihhoanCtntHDZ/1dw4NrldmIXtfqGX3kscb1trbgWmU2ote1ekb/8eYvNTy4Vpn0uuYCUuQCwjw4wQAGMIABDGAAAxjAAAYwgAEMYAADGMAABjCAAQxgAAMYaISBpgXXpdFRd+CM093HPzir4cG1ymw743SnddRaSaXxUffR6j9zH2/6TMN7XKtMla111Lp9o+Oj7pPrT3OfeumvGx5cq0yVrXXUun0sxwUKAxjAAAYwgAEMYAADGMAABjCAAQxgAAMYwAAGMIABDGAAAxgoaqBpwfWxPa+47rO+0fDQ2oYLV9laR9GKiOc72rndda3/QsNDa+t1rbK1jni9Rd9vO7jDnfrUVxoeWttw4Spb6yi6PczHRQcDGMAABjCAAQxgAAMYwAAGMIABDGAAAxjAAAYwgAEMYAADGKjVQNOC68Mb1ruBc745bcG1ytY6aq2Ywbfvd4c2NP751hZcq2yto9btu/e9Ne7Pn52+4Fplax21bh/LcVHCAAYwgAEMYAADGMAABjCAAQxgAAMYwAAGMIABDGAAAxjAAAaKGmhacD1w3yp3+Ntfn7bgWmVrHUUrIp7v0Gsr3OCGxj/f2oJrla11xOst+n75vlvdnzzX+OdbW49rla11FN0e5uOigwEMYAADGMAABjCAAQxgAAMYwAAGMIABDGAAAxjAAAYwgAEM1GqA4Pp4Oh6Ca4LrWk8qlks/p6gX6gUDGMAABjCAAQxgAAMYwAAGMIABDGAAAxjAAAYwgAEMYCDLQNOCa4YKZ6jwLJR8zgULAxjAAAYwgAEMYAADGMAABjCAAQxgAAMYwAAGMIABDGAAA3PLQNOC62N7XnHdZ31j2oYKV9laR62gj3Zud13rv+BsaO9GT1W21lHr9m07uMOd+tT0PeNaZWsdtW4fy82tCwnHm+ONAQxgAAMYwAAGMIABDGAAAxjAAAYwgAEMYAADGMAABjBQj4GmBdel0VHXdsbp7uMfnNXw8FplHjjjdKd11Fo5pfFR99HqP3Mfb/pMw8NrlamytY5at290fNR9cv1p7lMv/bWz51I3aqoyVbbWUev2sRwXJgxgAAMYwAAGMIABDGAAAxjAAAYwgAEMYAADGMAABjCAAQxgoKiBpgXX2sC+Sy50w2f9XcODa5WpsotWQtZ8vVv+1R157NSGB9cqU2Vnrbfo59/f/mP3x5u/1PDgWmWq7KLbwXxccDCAAQxgAAMYwAAGMIABDGAAAxjAAAYwgAEMYAADGMAABjCAgXoMNDW4PvrKy67rzK81PLhWmSq7norRssMdv3Udaz/X8OBaZarserfvxa7t7pTHv9zw4Fplqux6t4/luThhAAMYwAAGMIABDGAAAxjAAAYwgAEMYAADGMAABjCAAQxgAANFDDQ1uNYGqmf04W9/vWHhtcpqRG9rqzz1jB7c0Lhe1yqrEb2tbfvUM/pPnmtcr2uV9f0d9La2+mXKhRQDGMAABjCAAQxgAAMYwAAGMIABDGAAAxjAAAYwgAEMYAAD02+g6cH1WE+36zjz6+7YOd+oO7weOecbviyV2Sg8Y0c6Xdvaz7ljT55Wd89rlaGyVGajtq9zuMv9+ca/cH+69S/r7nn9p8//pS9LZTZq+yhn+k9i6pg6xgAGMIABDGAAAxjAAAYwgAEMYAADGMAABjCAAQxgAAMYmOkGmh5cqwKP7XnFHTjj9LrCa4XWbSpjzysND101rPdHq/+srvBaobXKaMQQ4TG6bQd3uE8+fFpd4bVC60+uP82prLh83nOhwwAGMIABDGAAAxjAAAYwgAEMYAADGMAABjCAAQxgAAMYwAAGptNASwTX2kEFzup5Xcuw4VrG99qehtDaKl+Bs3pL1zJsuJbRstMRWtv2KXBWz+tahg3XMlqW0JqLjXliigUMYAADGMAABjCAAQxgAAMYwAAGMIABDGAAAxjAAAYwgIGTaaBlgmvttIb41vOpu878mhs+6+/cxz84K3P4cH2neTSvlmnk8OBZB0BDfOv51B1rP+eOPHaq+3jTZzKHD9d3mkfzaplGDg+etX2dR7qcnnl9yuNfdn+8+UvuUy/9debw4fpO82heLaNls8rlcy5KGMAABjCAAQxgAAMYwAAGMIABDGAAAxjAAAYwgAEMYAADGMDAdBpoqeDadlS9rxVGa/jw7rO+4QbO+abvia2e1Xqtz/Sd5pmOocFtO7Km6jmtMFpDf3et/4I7tGGiJ7Z6Vuu1PtN3mmc6e1lnbZ96TiuM1tDfpz71Fffnz37F98T2Pauf/Yo79am/8kOLax56WXOByXLE59jAAAYwgAEMYAADGMAABjCAAQxgAAMYwAAGMIABDGAAAxg4WQZaMri2nS+Njvpg+vCG9W7gvlX+T68VVus7m69Z09L4qDvaud0Nvn2/O/TaCv+n1/pM3zVru2y9I+OjPpi+9701bvm+W/2fXius1nc2H1MuOBjAAAYwgAEMYAADGMAABjCAAQxgAAMYwAAGMIABDGAAAxjAQDMNtHRw3cyKYd2cmBjAAAYwgAEMYAADGMAABjCAAQxgAAMYwAAGMIABDGAAAxjAAAZOjgGC6+Mnp6IBTT1jAAMYwAAGMIABDGAAAxjAAAYwgAEMYAADGMAABjCAAQxgAAMYSDdAcE1wzZDhGMAABjCAAQxgAAMYwAAGMIABDGAAAxjAAAYwgAEMYAADGMAABppqgOAagE0FSIuS9BYl1Av1ggEMYAADGMAABjCAAQxgAAMYwAAGMIABDGAAAxjAAAYwMJcMEFwTXBNcYwADGMAABjCAAQxgAAMYwAAGMIABDGAAAxjAAAYwgAEMYAADGGiqAYJrADYV4FxqJcK+0ioKAxjAAAYwgAEMYAADGMAABjCAAQxgAAMYwAAGMIABDGAAA+kGCK4JrgmuMYABDGAAAxjAAAYwgAEMYAADGMAABjCAAQxgAAMYwAAGMIABDDTVAME1AJsKkBYl6S1KqBfqBQMYwAAGMIABDGAAAxjAAAYwgAEMYAADGMAABjCAAQxgYC4ZILgmuCa4xgAGMIABDGAAAxjAAAYwgAEMYAADGMAABjCAAQxgAAMYwAAGMNBUAwTXAGwqwLnUSoR9pVUUBjCAAQxgAAMYwAAGMIABDGAAAxjAAAYwgAEMYAADGMAABtINEFwTXBNcYwADGMAABjCAAQxgAAMYwAAGMIABDGAAAxjAAAYwgAEMYAADGGiqAYJrADYVIC1K0luUUC/UCwYwgAEMYAADGMAABjCAAQxgAAMYwAAGMIABDGAAAxjAwFwyQHBNcE1wjQEMYAADGMAABjCAAQxgAAMYwAAGMIABDGAAAxjAAAYwgAEMYKCpBgiuAdhUgHOplQj7SqsoDGAAAxjAAAYwgAEMYAADGMAABjCAAQxgAAMYwAAGMIABDKQbILgmuCa4xgAGMIABDGAAAxjAAAYwgAEMYAADGMAABjCAAQxgAAMYwAAGMNBUAwTXAGwqQFqUpLcooV6oFwxgAAMYwAAGMIABDGAAAxjAAAYwgAEMYAADGMAABjCAgblkgOCa4JrgGgMYwAAGMIABDGAAAxjAAAYwgAEMYAADGMAABjCAAQxgAAMYwEBTDRBcA7CpAOdSKxH2lVZRGMAABjCAAQxgAAMYwAAGMIABDGAAAxjAAAYwgAEMYAADGEg3QHBNcE1wjQEMYAADGMAABjCAAQxgAAMYwAAGMIABDGAAAxjAAAYwgAEMYKCpBgiuAdhUgLQoSW9RQr1QLxjAAAYwgAEMYAADGMAABjCAAQxgAAMYwAAGMIABDGAAA3PJAME1wTXBNQYwgAEMYAADGMAABjCAAQxgAAMYwAAGMIABDGAAAxjAAAYwgIGmGiC4BmBTAc6lViLsK62iMIABDGAAAxjAAAYwgAEMYAADGMAABjCAAQxgAAMYwAAGMJBugOCa4JrgGgMYwAAGMIABDGAAAxjAAAYwgAEMYAADGMAABjCAAQxgAAMYwEBTDRBcA7CpAGlRkt6ihHqhXjCAAQxgAAMYwAAGMIABDGAAAxjAAAYwgAEMYAADGMAABuaSAYJrgmuCawxgAAMYwAAGMIABDGAAAxjAAAYwgAEMYAADGMAABjCAAQxgAANNNUBwDcCmApxLrUTYV1pFYQADGMAABjCAAQxgAAMYwAAGMIABDGAAAxjAAAYwgAEMYCDdAME1wTXBNQYwgAEMYAADGMAABjCAAQxgAAMYwAAGMIABDGAAAxjAAAYwgIGmGiC4BmBTAdKiJL1FCfVCvWAAAxjAAAYwgAEMYAADGMAABjCAAQxgAAMYwAAGMIABDMwlAwTXBNcE1xjAAAYwgAEMYAADGMAABjCAAQxgAAMYwAAGMIABDGAAAxjAAAaaaoDgGoBNBTiXWomwr7SKwgAGMIABDGAAAxjAAAYwgAEMYAADGMAABjCAAQxgAAMYwEC6AYJrgmuCawxgAAMYwAAGMIABDGAAAxjAAAYwgAEMYAADGMAABjCAAQxgAANNNUBwDcCmAqRFSXqLEuqFesEABjCAAQxgAAMYwAAGMIABDGAAAxjAAAYwgAEMYAADGJhLBgiuCa4JrjGAAQxgAAMYwAAGMIABDGAAAxjAAAYwgAEMYAADGMAABjCAAQw01QDBNQCbCnAutRJhX2kVhQEMYAADGMAABjCAAQxgAAMYwAAGMIABDGAAAxjAAAYwgIF0AwTXBNcE1xjAAAYwgAEMYAADGMAABjCAAQxgAAMYwAAGMIABDGAAAxjAAAaaaoDgGoBNBUiLkvQWJdQL9YIBDGAAAxjAAAYwgAEMYAADGMAABjCAAQxgAAMYwAAGMDCXDBBcE1wTXGMAAxjAAAYwgAEMYAADGMAABjCAAQxgAAMYwAAGMIABDGAAAxhoqgGCawA2FeBcaiXCvtIqCgMYwAAGMIABDGAAAxjAAAYwgAEMYAADGMAABjCAAQxgAAPpBgiuCa4JrjGAAQxgAAMYwAAGMIABDGAAAxjAAAYwgAEMYAADGMAABjCAAQw01QDBNQCbCpAWJektSqgX6gUDGMAABjCAAQxgAAMYwAAGMIABDGAAAxjAAAYwgAEMYGAuGSC4JrgmuMYABjCAAQxgAAMYwAAGMIABDGAAAxjAAAYwgAEMYAADGMAABjDQVAME1wBsKsC51EqEfaVVFAYwgAEMYAADGMAABjCAAQxgAAMYwAAGMIABDGAAAxjAAAbSDRBcE1wTXGMAAxjAAAYwgAEMYAADGMAABjCAAQxgAAMYwAAGMIABDGAAAxhoqgGCawA2FSAtStJblFAv1AsGMIABDGAAAxjAAAYwgAEMYAADGMAABjCAAQxgAAMYwMBcMkBwTXBNcI0BDGAAAxjAAAYwgAEMYAADGMAABjCAAQxgAAMYwAAGMIABDGCgqQYIrgHYVIBzqZUI+0qrKAxgAAMYwAAGMIABDGAAAxjAAAYwgAEMYAADGMAABjCAAQykGyC4JrgmuMYABjCAAQxgAAMYwAAGMIABDGAAAxjAAAYwgAEMYAADGMAABjDQVAME1wBsKkBalKS3KKFeqBcMYAADGMAABjCAAQxgAAMYwAAGMIABDGAAAxjAAAYwgIG5ZIDgmuCa4BoDGMAABjCAAQxgAAMYwAAGMIABDGAAAxjAAAYwgAEMYAADGMBAUw0QXAOwqQDnUisR9pVWURjAAAYwgAEMYAADGMAABjCAAQxgAAMYwAAGMIABDGAAAxhIN0BwTXBNcI0BDGAAAxjAAAYwgAEMYAADGMAABjCAAQxgAAMYwAAGMIABDGCgqQYIrgHYVIC0KElvUUK9UC8YwAAGMIABDGAAAxjAAAYwgAEMYAADGMAABjCAAQxgAANzyQDBNcE1wTUGMIABDGAAAzUauP6GG90pn/5s2d/Z53zX9fb2Uac11ulc+oc4+1rsfzyHh4fd+fMXlp1nOu/0mb6jHovVI/VEPWEAAxjAAAYwgAEMYAADGMAABjDQ6gYIrrmpys2+OW5grKfXtS9a4g6cu8B1XfMLNz40NOdNjA0edr33PeDaF17h60V1o7+Oi690Y909c75+Wv2HbTZvX8PO11LJHR8fx3IDrv8E1633j/3xI8Oua9lNjblu6zzR+dIAK5Qx1Ur/ug3+OLX9/BI3vO/tzHomuJ5ad3iiTjCAAQxgAAMYwAAGMIABDGAAAxiYjQZaJrju+eVdZQGRBUV+Om+hD9b6Vj+YGRrpZpdueml+lZV1sLLmsxtnZeudDKsqfTZTw6xjY+PuG2tfd3+wdLP7/N273MGhkcx6y6pPPp/5F0YFsTIs57MxuH72/T73n6973v3h1VvcnXvaKxofGxhMAo/43J+p53ojz9O3eo64/7Jim79uzH/uXVcizKloqpH1X/f5Oj7uhra/5DoWL3ND23ae1G1vZD1MZ1kyLdv6bZR1mc9bnwXXP5l3vmvv6PA9rfv7+904DQNy6y2vTuv9Tg2w9Huma3it122da72rfuUO3nDLnGzQpetD/BuY9b7WOtZxtn9/VwquS6WSOzQw4M8vjWaw5Kplvvc1Pa5n/r9D6z3fWR4DGMAABjCAAQxgAAMYwAAGMICB2WVgZgTXQYDcdv7FbuCxp6f0fskKpGOwWfPZjbOsm3J5n9dzwy7evpP5fuv+/iTQW/VaR9NuMJ/MfWZdUy9gDevB2YIB5sh4yX1r3V4fQH3xnt2ub3i0ovOBJ34zcbN+3kLXe+8aN9re4RvMKMQY09C/czyMWrjpPV+fn7x5m3unj+FZT/Y1pd7zNfwNJLieej3U8ZRr+VZwLe+VjrEF1wRo6fVZqf6m4/tG9Li2BpWzsUFXkTpvteA63mbOu9Y53+Jjw3uODQYwgAEMYAADGMAABjCAAQxgAAP1GGi54Lrt54vckZ0vnwiKunvc0d+963puvcsdmLfQB0ptP73IDW3bUXYzObwZX0uPa/XO8cGUwqngT9uibVJw3X3T7WXfJfPNwDBLPcp+9Phb/sb8p27b4doGj5bVZz2oWJaLUqsYeKVz0P3RL170zq/bsb+QcQsrOpcud+OHGTY9PJa6Tuh6oUBP1w96W8+8cz38rSS4Tj9+ulbIuK4duoaE50DaawK09HpMq6uZ9Jn9FszV4Lp09FjZv3n1b/GOixb7fw93XnW9G9l/4MT3dfw72BqOVupxHdvhvJud5118nHnPccYABjCAAQxgAAMYwAAGMIABDMw9Ay0YXGc8465UcgNPb0rC6/hGYngzvpbgOgt/0XKzlm/Vz2sJ9Fp1X9iuuXfhKnLMa2mcEQ4vm3cdKbL+2ThPtYHebKyDmb5P4W8awfXUa2ctjTMI0KbW40w/T7T9cz24jo+hGmtqhCE15Iz/DR7PW817guvZef5UY4B5MYABDGAAAxjAAAYwgAEMYAADGMBAaGAGXVIsAAAgAElEQVTmBNfHj7uxQwOu88rr/E2z9gWXu2O//yDpCRXejM8LnIrOZ5VU7fy2XCtPw+d3MtwvF4RWtlrPtoXPYi4y3K/WRXCdfT4cHBpxn797l++JquHXNQx7PceHZbPrejrrJvxNI7ieegzu3NPu/vDqLf4xGnqcRpFjQXA9tR6L1Furz0NwXX5cCa7L66PV/bJ9HC8MYAADGMAABjCAAQxgAAMYwAAGZqqBGRVcq5LtRmLbzy52w6/uTW4qhzfjCa7zT8iiz+9MblKed6E7susVNz50xPXe92vXfsFlvvGAnjd+8IZbyhoQpJ0IYRh46JHH/TFT2Xp+sJWlYeA7Fi1xh9Y/5saPpg9brs8Hn9nsOi6/xmm4ePX60bRz6Q1uaPtLhZ89PDZ42K8nLMev/7Kr3cDGp/x+pu2HfaZ6UO//jsuuTkYAUF10XX+zG97z+pTnr9ty4fTY+x+6ntvuce0LJurS9kXb1LfmITfa0ZXYDpdLXpdKbnjvPl//bfMv8XXhyzj/YqchPA9teMKN9x/KLCM5tsHz46vpRWXPvrTnu6tOe+97IDmeOi5FbGh/SiOjbvA3m13HpUsn6lMWLl3qDm/d5uvSzvm88zqpl+A520WexRza1P5X+rP9nbK+8XF39J33XM89q137JVclPs113+oH/ZCqU5YLtjf5bvLYdt98R7mP+Zc4fab1HC/lh8Y69oce3ujPqeQRC5PLhw1+knWmbUf02arXOgoHemG91nPO63niw6+9MeH8/Isnjo986Fx97OnMa4X2y3rxyaGGvFU5Ojd8fUxebwY2PplbhtVP2vnavvAKfw3TuWTz5U3TytB5UuScr+d8DX8bK/nW95WG6633Opzsy7yFbmjHLl93Vje6jvptnDzGg89tdaXRE8+l71uzzn+v341j776fW+/6zTpw3oV+fl2v846Nfdc3POq+eM/uqhtn1BNcm9OuZTc5PZc5qV+7HuqYzL/E/16Mtndm7ket53xyLb/sajfW1+9GPtg/cb5N/sZ65/c94HSNt3rKmibbXsdvtP99fnija1+0JPl99dfRixa7ntvu9uexrgtp2xBed0Lrmdft6BpnvzXhsnmvc3+T0n6jJ687ujYXqc9abQxuen6i7vRvt527U+vK6k+/B2oIqv3Ub3jeb0ty7tbQ41rr0bXYznGdw1qf6sH2s9K1x7bZpvWcd1YG0/z/X6B+qB8MYAADGMAABjCAAQxgAAMYwAAGmmFgxgbXuiGtG9NWaeHN+bybiUXnq7Zcm38mTIsO9xvepFSwqBvraTdxFb74kDG6CWx1Ed5M1g3K4Tffdu0LJ26UxuVl3WAe7TqY9LaPl7H3/hnkA/nPIz3y8quZ67ZyLECw7Q+nR99+Jxkq0+Yvm85b6HruuNeHseFy4WvVpeqsbLkoNM0bhlNBTv+D60/c1I+WtXLzzoPw2Nr8muatN9wHCzvaL7zCqU59iJ+yHbo5PfzGvuQ8DcvQ67GBQf/s+HAbktfzFjoFvp1XL/d1lbc/cblFh/sNbSbrTdkP+y7Lp914t/nSprphf3jLi7nBgBpFqEGDhc1p5eg7C/zi/dZ7NeJQAJC6rPZt3kLfcCMvoIjLHRoZc1/91R4f6Gmq9/E84fuwXms953NtTB4juRtt70jdFjsmMj3w9HOZ55zOd60r3P7ktR5RsfGpzGVVx6pr33Am4/qnsuo95+s5X8PfvEwTgfm88KgR1+FwX3QdOfz8b5MwK96++Ho0/Pqbru38Rd62jktynFLqvufu+/18eibvyIH23HmtnA3v9Lj/dM0W/6fX9nmlaT0BWuhU9asGUHE92HvVV9q21HPO27Vc17bDL2xPGh/ZOm2qBjlZ55q2qRE2Rj78aCKwDjza+m2a5zO87tj8mmZdt+O61G9MuFyl11m/SWqMpYZ5eddxbZP+PRFvQ/i+Vhvybs+i7rnrvtzfnIEnfuP3WeeVzq9w/fHr8NyNz8143vB97jm+7CbfIFJ1nXdsw/LsdT3nnZXBlP/5xgAGMIABDGAAAxjAAAYwgAEMYAADrWdgRgXX4U3J9vmXuqO/eze5yRbenM+6mSiAReczrNXOb8u16rRooKftD29Sqoe7bsIqlNXNZd2kHnjqWafjoBuOCiiPvpV+EzY8bt233OEDaIV46lmssrQe9Z7rvn2Vv2mt92H9qRfXweW3TtxQnrfQv9ax13zqdW/Dx2s7fGgc9NALy1FDB+vto6mCDa1X5eiGvG7g6mZy1g1Z7Z/20+/v/Et9j1Ytp+WP7n3Tad/8jWoFgw9vTL1ZfOy995PgXKGv1mllqC7Ui1Q9zbK2Qfvj92My+FZwpzBUx0Pbof1RqK2GAXnngXqsjfX2+WW0nEJ/7VfeesO6tLBDLrS9fl+e3uS3Q/vRvXJVctNe9RL2mkzKKZVc3+q1E8f13AX+OOp4anvsuKp8C6py9ycKroo2zlB4q56KWqf+RvYfmOiVe+4CXyf2eTLt7Uvt2a+AQY0Ruq5b4Qaf3ZIcUx0X9X7zvQftxvze9CDfO7/xtqQ+OhYvKzu2MtZz612+XjMDrG07kpBVltXT1Gyo513Xsht9+ZUamyTHaLJeqw306j7nh4Zc17UrJupC151b7/LXe3+MPvzI9a99JAnns4JnC318r9vzLvTHQAGKytD1w19T5i3068i6boTnmq51uuapPnXO9j/wcHI9ybv+NeKcr+d8VYg21tObGD+y82XX9vOJ8FcjWCS2J88BzatlYgONug5rfbKp603vql+59osW+98RXfvsWijrOj7x9UjbYMFu/F24vdoHP4KDfhNuuyf1WhzOr9fVNs4Il68nQDOn2l79Buo3RPuuOlBdqU7878L8S13aeT9U5zlv13KtV9eF0Lmu5To3/O+afh+uXeEfpxDuu143wkZYhrZDgWvy+9x10O+7jr22T/8ui7fBv4+u5/b7Im+qy9Rlgt8ONWAJzwf7XdRIDfptCL/zrzMavAw88UxSZ7r223Unrk8dc11PsrarZhulkq8/nWMaySZrHUXPJ9s+7bOdu3nnn82vafzvJruGltXF5MgIBNet9z+J4bHkNccHAxjAAAYwgAEMYAADGMAABjCAgZNlYEYF1+rVqxuauhmnsFLPvLaKKhowF52v2nJt/lafVvP8zvAmpeq8/6FHpwQAGq5aNxv1fVZAGYZYCpF0I1VhTlpdqaeQ5g+/U+BmQ74qEI1DFd1stt7gWb2GFNJar2AfMu1N71mkG7kKGuNtCG+qZ/Y8K5V8HfmbxRm9/Mp6NwVD3Yf7q5BKQ+dqeOOyzydvsFtPQgU+upmeNo/qyA8pHdyUT5vPPlMorO0uejM6CTsmGy3Evaq1/u4VK32ZCrXTejyGgV5a+KhAuaxRwi/vSt1X2web1vMs5tBqNUG56jpv6NfRto4kvM4K0sKwo2flqswhrHXOxfWtfQ+Np9Wn5tFx8T26dQ296vrsnsaBm2Nj4+4ba1/3va01jLKGU7a6zpqG9VjLOW91kRewJ9eeeQv9ORtvi4U+cq3wSMcgnCesi7TrRhjq6JqRVufhb1LW9a8R53y43Xpd7fkaLh/+BqYFoeG84etGXIdVXtnvynkXTjjs7i07Nn69pZIb2f/RlOtgWX1m9BBNtrXAUMm2j8++3+efa63nW2tYfPu8yLQRwbUPjn92sW8ckTYawvihgSkBZCPO+fBa7oPDuGFN8LumbdTvY1wnSX3r3wE1/kaHQ1YrcE6rA613tLPLX+vibUh7b9eAosF1XEYt51nYaCL13wqlkm/YZo0BNPx9vF57b9tfiw01uvH/bso4ZlqHGgZYY7xKIxho/vDcLfJvBTVY8w36shptRXVBcM3//Jp9pljAAAYwgAEMYAADGMAABjCAAQzMbQMzIrhWMNn/0Iakd5tu4inYCPGGN+PzAqei81nZ1c5vy7XiNHx+p4IoBVJ52xnepFTPIN2QnTK/evZoaGOFQxkBZVmIpZuoz26ZWk4QlJWtIyw/57mm6qHre4Wfu8Cl3QhOnvl47gI/9G/ZOrLWHXyeDFF73oW+91TW8gpoVQ+qDwUs8Xx2I7rWG+kqr5ab6fF2xO+rLTMMO/ruf3DKfqp89TJTPejmuW6ix+u0AMp/n/EcTlnxZajnZMHgOnwWs8KoeL1570OrRdeXV174nTU46Fy63I0fLm+coWucf/6yeshlnWuBx7Bce23GK938T86VjONi5dl06/7+JNBTwxf7PG8a1qMPu6o458O6UICf2ltfIbxCkcmRAuw51uE22bnmz8WMYaXD63vsOPwua7jdcBuyhqS27ajnnA/3S6+rPV/D5cP9KhxcN+g6rO0If1d8g4GsBjwZ3sNhkNOu9Qo87TdJjZX03OZw/9Nej4yX3LfW7fWNMz5/9y6nxi9p82V91pDgWqHvipVTGmZlrVOfN+KcD6/lWc7VY1cNznQu6ZwrOyeD+lYIqjA0bZuT607Gb3RNLjOM2PrrPfdqOc/UA95C6awwWI0urVFWXgMi235f71XaCK+jWY1qrHw941oNB6zesqbhuVskuA7/PZS1DWHQX+m3K96ues67uCzez+3/Geb4c/wxgAEMYAADGMAABjCAAQxgAAOtZaDlgmsLqTKnGc8QDm965gVOReczqNXOb8u14rTa4X7Dm5Tdt96Z2QMqCRczgrAwxMobtjKtzhQ6WE/ptHDKlqk0nwIwmcoK162crKmGJtbyCqeyht3UsuG+ap1xeWFYe3jzC1O+j+dPe28BaGrvuAo38tPK02fV3qAPw46s8Cs8d+J5ygK/nHAp7IWXd17bftUz3K/KKDt+BYNyW3c4VW95nT/hX96wtRq62obdjwPUsNzM16WS0zkqo2nBeLhceF4feuTxXIOl48fdjx5/ywd6n7pth9OjBsKysl6H9VjtOT/8xlvJUNZq/JC1Dn2eBC+LlkxpWGPfaVhslZlWThggxdeX8FxNa3hh5VWaL/y+1nPe1mXTas9XW07TvPMynC98Xen6avMWmS/0VyT8srJt6q8deixDysgrmqdisJ1yjXylc9D90S9e9M71mAFbV9FpPQGaOVXYqdCz6DoV0DfinA+v5VnnW971usgx1z5Vmq/sWn/bPVUF+Fl1ZnVba6ORWs4z+32uFAYXmc+2v2obk8bVsCPr3z1Fgu24Xqs9d5Ne3+cuyG6wGDgmuG6t/0GMjz/vOT4YwAAGMIABDGAAAxjAAAYwgAEMnCwDMya41pCxnUtvcMN7Xk8NUMOb8XkBV9H57ABUO78t12rTWgK98CalbqBm7VMYNCmkiecLQ6w4HIrnjd/7nl4XLfY3X/OOq4JCle3D5SgIDddfS1ASBgQqv+hf2vaGw2PrZrSe2angQEO+Zg2NGteJbgbbkPmaaj36TDei43mLvlcZ2q+i9WNhR96N5vDciYProsckNJhWn/H+Vds4I14+3K4i6wuX1xC2ekZt2/yJofOznKSFKFafWiauq3AdWa/Vg1uBddY6sz7PO6+1rloDvbAeqz3nk576VZxraXVqoU/ad0k9BqFJ3DvXGqvkGVc5YTiTdv1rxDmfbO9kIFXt+Roun3dehvOFrxtxHbbyys7pu++v6ZqVDE2d0lgq6YV8/iKnkTJsvVnTWhtnhOU1IriuFHSG69PrRp3zdu2p5NzOh3g7G2UjfByHrlca3l/P9vbDxac8cz2uj7T3ha4BKQ0ZrKyqz7PwelLhudphgxZdQ2yd4dS2P67zcJ6812VDgUf/NktGkckZSjwuOzx3i/xbwRo1ajQc9biPy7P3tp+VDNr8Nq3nvLMymPI/3BjAAAYwgAEMYAADGMAABjCAAQxgoPUMtFxwrd5xR3a+XNZTsUggF96Mzwucis5nWKud35ZrtWktz+8Mb1LqxmLWPoV1lDZfGGLlHZu08iuVHS5jN5njoCpcf17P8bCs8HW4fFYAmPZ51r4O7diV9K4tW27eQj9c9ND2l5yecx1uQ9nrUsnf0G87/+IpQaWCbAWFev5v0SBcZVvdFbkZrfmLhB3hsYvDWA0PqmBC+59VT1pPWPd582neWp7FrOXCv2rWFy6nY6ab7mXHMyN4jX2qnBP1md07OFxf/Do8V4tsg82Tdr5a2Qr05j/3ru+F+smbt7l3+obL6srmS5vWWo8qy0IM28Yi07Q6tXLSvgu32ezH82V9Hi6r16HzrPqs+5yPnNq2FT1fw20Otzc+L8P5wtfhMln7aPPbtsX1ad+HViuVZcvE07D3bji8ddgzWI2CFIbGy8bv3+o54v7Lim3e+cJN71WcP15e7+sJ0Io6jdcb1mORc8Tmiev8xLXnEm85Xo+9t+2Mw8VG2lAI3nnVDanXUY12cujhjW5s8HDhY2TbnGXR9i1rapaLnmfhda/SMlbvOi5Z52G92x826IvPB43soXVX82iK0Fyl/VOd2vbHZuL6LjpfvFw9511cFu/L/y1EfVAfGMAABjCAAQxgAAMYwAAGMIABDDTTQAsG1/k3T7MqK7x5qpuN9c5nyxct1+ZvxWmtz+8Mb1LqxmLWvoV1lDZfeDM379iklV+p7HAZu8kc36QOe6bVG1zreZQj+w+UN6yIhoRWvfm/nB7Q40NH3OEtL/qhXtsXTjwT24IF9cTuuePeikOljvcfcgNPPesO/uKXU3v5zlvoDq1/rHB4bXVX5Ga06txuuufdkA6PXXxjfjqC61qexRz60etarIZDE6s++h/a4MYOdk+pe7s5H/vUeq2Xcd6w1vG2hu/Dc1XPoE0MmsWMqfY3LCd8raBagfUfLN3sA2wF2eH3ea9rqUcrz+optRFTxn74EQuixh5WTlp927o0NfvxfFmfh8vqdeg87fpn8zfinLeybNuKnq+2XLy98XkZzhe+LrqPWsa2La5PKy+0mldfNn/W1IZBDoeiD4ebTuv9nlaWwmoZV3itEDttnkqf1ROgFXUab0NYj/Wc80Wu5Vq3bWd8zW+kDb+P4+O+4VXvql9NPCZk3sKyIFsjI4y2dxQ6TrbNWRbjOo3fm+Wi51l43au0jNX7dAbX2p9kBIKfn/i3dVnDjypGPQjNVdo/rdvqPzYT13PR+eLl6jnv4rJ4X/z3nbqirjCAAQxgAAMYwAAGMIABDGAAAxiYbgME1xXCmPCmrG5iTvcBmY7yax3uN7xJqWFCs7atmqHCq63DWoYh7bzyOqdn19r2VnMz2ZYpmwbDf8Zll81XwVLevBpVQCG0PedYPaeHX3kt2Ye8Ze07hcH9DzzsrCe2AvFj739YqIxqb9DbTfe8G9LhuRMHZEWPSWgwz04jhvtVPYbblbc+q3NNbcjXNg1NnDMcatLDLWUIWavPvBAjXGf8uqxxxk23O/U8jeep9r2e9atAT8/+1TWkmuVrqUcrPwnxKwwva/NnTS0MyX0ufXBuN2KocA2Nm7U98ef1nPPVnq/huvPOy3C+8HUjrsNWXnhO6xjZ59VO04Y6Htj41EQv0osW+2ddVypTz2zXs9vlXM9yr6ZxRlh2PQFa4jTluhCuI37dqHPerj2VGs00cqjwan5HSyOjbvi1N5yWscZdvfeuKeSm1rq1uq76PAuvJxWOZ/K7kXOdq3f7tR9hwyo19tBnNtS+/80qMJy+1Ud47hYJrhkqnP+JNTtMsYABDGAAAxjAAAYwgAEMYAADGMBANQZmTXAd3lDLC5zCm/YKkipVVjh/XrmVymnW9/UEemGd5vVUtpuTB1KeN6r9rifECnsG5T0rt9J8PStX+Zve7RdeUSjQiI9XctP+gsucnhsZf9+o9xriW2GwbtDXGuoc3vyC07GoJgSt9gb9ibDjRC+uuA7CcycOrsMhfTVkuEL3eHm9D3tQ5p1/tTbOiNdZi1WzlRfGhPub1vvv6O/eTRotFLkuxdsdPoe9mqFfp5Qz2fii3kCvlnq0bSlrCLPxqVQXNm/e1EKfvEBODVwsEIuvLxYsZV3XbN1F57P542kt53y152u4zrzzMpwvfF3p+mrzFpkv/F2p9Rqn9WkYcA1/rOtc9y13+Gc+h++LNN6op3GG7bOmzQiuG3XO27Vc9ahGI+F+2euy69dlVzsdZ/uuyDHXvEXns3LjqRp6dF693B/vIqGplrdrQNo1Ny4/7X0t51nP3ff7baz0XOoi89W7/X6fSiWn4fR1fDVijK55Ze9zRoaJ6yQ8d4scAz272/4tktmoJwj78xrCxdui9/Wcd2nl8Rn/A40BDGAAAxjAAAYwgAEMYAADGMAABlrDwOwJrnMCiBCbekS2/Wzi2cAKHMLv0l6HN/nzgrO0ZVvhs3qe3xnepMwMw3RT9LZ7Jm7UZoTC9YRYujmflJ8TGofHNS34s+EydfNWvfKqPTZJ775zF7i+1WunDANdbXlZ84d1XmuoE5qNA+Os9Vpv4LwQOVzWwo68G82VtsN6R/pgcOfu1GOSNIrIeRa2GmfU+izmcJ/0uharFm7kBddq7NB+wWX+PEkLUXwoc9X1E99fujQzyI+3N3yfGJ+30GWGBAVHBbhzT7v7w6u3uP983fNOQ7CH6ynyupZ6tHLDulCdakh8+66aqYU+eed8aDS+boTfhc9RDrchDPRqbRRTyzlf7fkabnPYSKLIb6BftkHXYZVVy/6G2x++tkYDqns12PGNftSAKuN6Ei57cGjEff7uXb639bfW7XV6pEb4fTWv6wnQzGnadaHSNjTinLdruc6TLOe+x/2iJf76pGHJyxoFNNBGpf21a22R0FRl2e+HRjKR+0rlx99bo6R4NIZ4vvD90LYdTo/7yLvuhA1m8n436rERbpMFyPq3r8xoeP287QuXDV+H526RYxD29lbjkjI3k79FarSmf19qe/L+PRFuh72u57yzMpi2xv+Mchw4DhjAAAYwgAEMYAADGMAABjCAAQyEBmZNcO0DzsleJf7m1959U25SashJC0GL3iArCy9m4FDh9Ty/M7xJqZuK/Q89OiWwDXsLZt2YrCfEElYb1lLb0L1y1ZRnPyvo6lp208SNTw3XnDL0pZ6Bq5vPKkMB4tG9b07x4U8M/3zNN934keGy79W77+DyW5Obq0PbXyr7Pjyp9CxbDfs98sH+KfMceenl3CBON5g1TLi2My1UKh095nwZQ9nPYh144pmJG+cZPeDDbbXXdoNfN7aHX351ynbbfDa1sCPvPArPnbQA/dh777v2hZf7fdXx03G08jVVYGm9YVUfWQ1H6nkWc7g+v86hIacb8nnri5c59MjjEy4yhgoPfXp/GSFKcty0rytX+R6l8br0frStw418+FFZXenz0LhCsKNvvzNlHitPdXvo0SdSLfYNj7ov3rPbB3rfWPu6OzY2nlmOlRdP6z3nk7qYt9BpWGBdu+N1+Pfj4+7Iy6+6wy9sn/K9hT6+zhct8fUWllH2e5By3Qh79OqaMfzG1N+Uw1u3Jedr1vWv3nM+3GZ7Xe35astpGl7X9Xuo387w+6zXjbgOx+vXMcpaX5HPw2BMPVx1rDMbWUWNNla91pE0znj2/b66tqOeAM2c1hJcN+Kct2u56i71306lkv/t1/cKZBV8xsemETY0usbRd97L9Bjuazw6Qrw99j5s0Dbw9KYp223zZU3t2OT9zsXLhkFs+yVXTX0ed6nkDj28MQm3bfjuuBy9t/XXYiMsL2wM1L7gMr9uXdOqHT0mvHYUCa59w55b7pj4fdQztuN/l0d1UU09a//qOe/C+uE1/2OMAQxgAAMYwAAGMIABDGAAAxjAAAZay8DsCa7//16XR996J+nVqBtg/Q9t8DcNdbNNNzC7rl2R3CxMC0DTcIbhW1ZwlrZcK3xW73C/4U1KP9zjvIWu5457fWimHljhM5l9GPxWelBWb4gVhsa6ca4AWb2n7LiWhZt33Jvaq0fHw4fC50/0tlc4LAO6catyRts7fO+sjsXLfHCpbY6PoYIr7afdwO+59S4fgPvluw46BQDdK1b6ICvrBqzvMTZvoeu69iY38MwmX5daXkFk35qHkudT67m8CmXibbC69Nu/YqU7vOXFxLj2pfv2VYlxPyxoFAbH5dn7sgBo0RL/fG1tl/0pMLd5NbWwI2s/NU947qQF1wrM1Hvd16eGMb3yOn+eap06X3UsNMyzBVJZ51+jhvvVNlv9apuy1hfWg16HAbx69um80PmhP4U86sXu93Fy+HbfOCDlWdje+Y23JfWhAE7LqxxfJ2/scxpeVs8wT63P48ddGKRqPs0fG5c9nUdZYciGd3rcf7pmi//T63h/i7yvpR7DcuOwXxa89aAueu97IGn4kBaAWujjez+ed6E/DhoKWXWp64dviDLZM1LXtbTegGFDkrJj295R/jx5NYbJuP7Ve86H9WKvqz1fbTlNdS4r+JNJXUf6HliXXEP8+d7Tm9pQoFHXYa1D9rT+tOMWbmvF10FvX3+OaUSMAo8AGRoZc1/91R7fOENTva+4rij4DuevJ0Azp1nnY7ietNf1nvN2LU/Ok+Aapt8lnRv+u3MX+H9Dpf02NsKGbYeul3o0h35vZWXKdTQjPE+rm7LA9oLLfK98b3zyty1tX8JyrKeybOkapN+lcHmVH85vr5OGN2oot2iJH4Jdy8X1qWu89s+Wi6f12gjLs7LsPJnScz7Ft64V4f7quql/m6gM/ftiZP+BE9/39rnj41MbOYX/Lg+voWV1Yb+NCrf3vZ1ZH+H+6HU9511cFu9b639OOR4cDwxgAAMYwAAGMIABDGAAAxjAwNw2MKuCa2FWT1iFaXZzLm2qG3ZZNxzjEyIM34oGWXEZzXpfb6CnG5YWMCjktR7LcZ0q/NDN86z9rDfEUrm6uRsG1PE26H2R4zq0Y1fyLOG0MvRZXk8i9WJNgkj1QMv4yxqa1IdYGctYWeqFrF6kafUZ1qXNnzbVDXH1YEsrI+uzMACJy4yDUgsZ6gqu1ftzYNAft3h9ei9XGk48rwd0vY0z4roI67ea833wN5uTnrdp+6LzKGzokVjDTtUAACAASURBVDWUt6+Pm+9IgqK0svRZfDzC/ShiXGXIcfxs8UYFerXWY7gfRetC+6Je7+Gyem1BjYKW3lW/yqzTtN7+SVmlkjcoi1nHQudA3ggM9Z7zybZEwVI152tcRlkjnOh6lHdON+I6HP6u6BjF21bt+7C3b1tKz/m08hrROCMst54ALXF68ZU+BAzLLfq6rnN+205vW8e9998eSBpPxd5Tew8HJuu1Yb8p8XrL3s9b6PofXJ/asCKrrvKsV/KnURn0b5+ybQjOl6zfCC2nkSIs8E9bXr8JeaNiaH8aYcPqRQ2YwoZ3aT3nbV6bFjomk/WR1/BCDYbUkCqtHuTq0IYnEoME13P7f0rNHlMcYAADGMAABjCAAQxgAAMYwAAG5raBWRdcC/TY4GE/FKN/jt9kjzrdNOu6/uaJQDClV0jWiTBTg+tGPL8zDhhUr76X42SvY9Wpeu5VCkgbEWLp+KhX1+Azm13H5dckIaECpc6lN0wERwWPq/ex/rGycnSDWcH8ofWPpQ6fHPrw2/HcVt/jKLwZqyE4ZUw9Q7MaRuhz3Qzuue3uiUYBkz61fgWJ6nVd6Zm+ChsVfCqo90Ntm/GfXuT3SWGvhisPt7nQ61LJDe953e9XfMM9DkrthnZeyBWeO/HyZdszPu4Ob3lh4jmX2hcdi8XL/LmqY5UE1ytXTdmnep/FXLYdNfa4tjJ0Huh8CE1oX9QLf7Szy5tQLzXdvM96lqwvS8dh7z7XffMdzg/rOhkMtM2/xH82/NobqT3bbDs0zTIuLypXYV/ci17LachkPddaz7fWUMphmdW8btQ5r175qXVx/sWu44pl/jqvodPThrsOQx+FamW2ZWzREjew8cnMIdnD/T32/of+MRPh8WhfeIUPp3SdDOeNXzfinI/L9O+rOF/TlpdXWZCrMFDKO6dVTr3X4fh3JW3bqvlsrK8/aVRVZJQJDX2vIfD/YOlmPyS+hsavZn1p8zY7uNY21XrOx9fy5Do22VjDO7/vAV9+2r6Hn9VjQ2Hv8Jtv+x7zOrfD66jOO1nNG0o83I74dbxP5r1ScK1ytE8Djz09Ycx+ryevyVnBtV//5LXL/ybYOTZ53dFQ4Tpe8XbG78NrWKXrTLxs/D4caSFrRJd4GbNh9ZU3zQuuVW5yDCYDbIXo+vek6sGGdK907Ym3r57zLi6L93P7f4Y5/hx/DGAAAxjAAAYwgAEMYAADGMBAaxlomeAaGI2F0YjndzY6YOAYN/YYz4X6zDPYiGcxz4U6LLqPI+Ml9611e32g9/m7dzk1fim6bCvO18jQpxX3j22auJ4qELPHCRQJIrfu708aZ6jhSyPqcSYHaBZOVhsaNqLeKOPk/ZsgbOBRzbPtW/kYzeTzrpXrlW07eecldU1dYwADGMAABjCAAQxgAAMYwAAG0g0QXAdDXc4WJI0a7jcvNJwtdcV+pF8YWqVehl9/02n4X/Vc1nC44XY1erjfsOy5+PqVzkH3R7940QfXeszATK8DguvWPrcb5UsjTKgnqHpwajjkvHJLx4+7Hz3+ljf+qdt2OD1qIG/+ot9ZgPaTeee79o4O19vb5/r7+914wVFAiq5nOuYjuJ4b50kypP55F/oRN6bD0nSXWSqV3KGBAX9+6RxbctUyd8qnP+vOn7/QDQ8PN+Rcnu59oPy5cb5xnDnOGMAABjCAAQxgAAMYwAAGMICB+gwQXM/C4Lpt8Jhb82aXW/1Gp3utq/JwlFknEcF1fSdXVr3y+Yl61ZDm4xk3nDV0rHqGKZTSsM4a7tnqbqxU8sNay/gjv+t2aqxh3zE9Ub/V1MWOtgF/zXhw30HXfWRm97bWfhNc1+agGjPNnlePTei4dKm/RnTfcocrjeYP+61RGh5666B3/sJH/Q27ZlhwrRDN/s4+57s+YGt2HVVaP8H17D9PNNy5HmOi39Iiw+lXMtOs7xVOK6S2c8ymBNez33CzzLFebGEAAxjAAAYwgAEMYAADGMAABppjgOB6FgbXjTqZCK6bc1I26vjNhHL0HGw9d1nPAVWAonBa7o7ufdMdXH6r72mt3tZ69vhM2B+2sXXOGYLr1jkWjTwv9MxwXSP8M3N1jTh3gWv76UXuyK5XmnaNILiendYa6fZklzU+NOTPk9H2Dtdz578lv6UDTzzTtPOk3joguOY8q9cQy2MIAxjAAAYwgAEMYAADGMAABjAwMwwQXBNcZ97EJLieGSfxTL7YKrjWs1UVPqX+zVvoeu6416n39UzeT7b95J9LBNcnv85PhvOeX9415VrRvXIV14ga/y1Dj+vZeZ7Y9S/8Xe1adpNTw4+TcZ6yjtnpiuPKccUABjCAAQxgAAMYwAAGMIABDGDgZBgguK7xZu/JODjNXgfBNReh6TaoocIHnnrW6YZ6+4LLkkCq7fyL/dCmw3ted8dLJW60c52q2oAFNx0XX+l7Hk63Zco/OdfLMLjuuGix0zOuadhSe90TXNded618ztv1T8G1nv/ee9+vnX5vW3mb2bbZaZHjynHFAAYwgAEMYAADGMAABjCAAQxgoFoDBNcEQtzIxAAGMIABDGAAAxjAAAYwgAEMYAADGMAABjCAAQxgAAMYwAAGMNBUAwTXAGwqwGpbWjA/rXMwgAEMYAADGMAABjCAAQxgAAMYwAAGMIABDGAAAxjAAAYwMPsMEFwTXBNcYwADGMAABjCAAQxgAAMYwAAGMIABDGAAAxjAAAYwgAEMYAADGGiqAYJrADYVIK1hZl9rGI4pxxQDGMAABjCAAQxgAAMYwAAGMIABDGAAAxjAAAYwgAEMYKBaAwTXBNcE1xjAAAYwgAEMYAADGMAABjCAAQxgAAMYwAAGMIABDGAAAxjAAAaaaoDgGoBNBVhtSwvmp3UOBjCAAQxgAAMYwAAGMIABDGAAAxjAAAYwgAEMYAADGMAABmafAYJrgmuCawxgAAMYwAAGMIABDGAAAxjAAAYwgAEMYAADGMAABjCAAQxgAANNNUBwDcCmAqQ1zOxrDcMx5ZhiAAMYwAAGMIABDGAAAxjAAAYwgAEMYAADGMAABjCAAQxUa2DGBNdjY2Ouv7/f9fb2uZGREcJWAncMYAADGMAABjCAAQxgAAMYwAAGMIABDGAAAxjAAAYwgAEMYAADs8RASwfXw8NH3ap773dn/F//tzvl059N/nbu3AXAWQKw2pYWzE/rHAxgAAMYwAAGMIABDGAAAxjAAAYwgAEMYAADGMAABjCAAQzMPgMtG1yrh/XNt9yWhNUE17MPHxcUjikGMIABDGAAAxjAAAYwgAEMYAADGMAABjCAAQxgAAMYwAAGMCADLRtcd3Z2uW+eebYPrn/4L//b/f7377vx8XF6WtPTGgMYwAAGMIABDGAAAxjAAAYwgAEMYAADGMAABjCAAQxgAAMYwMAsM9CywfU777zr/ub0M3xwvWnzVuDNMni0nKHlDAYwgAEMYAADGMAABjCAAQxgAAMYwAAGMIABDGAAAxjAAAYwYAZaNrjWc6xteHCeaQ1YA8sUCxjAAAYwgAEMYAADGMAABjCAAQxgAAMYwAAGMIABDGAAAxiYfQYIrunJTG92DGAAAxjAAAYwgAEMYAADGMAABjCAAQxgAAMYwAAGMIABDGAAA001QHANwKYCpDXM7GsNwzHlmGIAAxjAAAYwgAEMYAADGMAABjCAAQxgAAMYwAAGMIABDFRrgOCa4JrgGgMYwAAGMIABDGAAAxjAAAYwgAEMYAADGMAABjCAAQxgAAMYwEBTDbR8cP35L/6V2/Pqa02tpGpbAzA/LUgwgAEMYAADGMAABjCAAQxgAAMYwAAGMIABDGAAAxjAAAYwgAEMFDfQssH1ps1b3Smf/qw7/at/69597/cE17TwwAAGMIABDGAAAxjAAAYwgAEMYAADGMAABjCAAQxgAAMYwAAGMDBLDbRkcD02NuauWXa9D66/eebZrrOzC4CzFCCtTIq3MqGuqCsMYAADGMAABjCAAQxgAAMYwAAGMIABDGAAAxjAAAYwgIHZaqAlguuRkRHX29vn/z7cv9/dtOJW918/92UfXN940y1OQfZsPQDsFxcXDGAAAxjAAAYwgAEMYAADGMAABjCAAQxgAAMYwAAGMIABDGBgrhtoieB6585dPqTW0OD29zenn+FW3Xu/Gx4+SmhNb2sMYAADGMAABjCAAQxgAAMYwAAGMIABDGAAAxjAAAYwgAEMYAADs9hAywbXp33mC27xlUtdX18/AGcxwLnecoT9p/UUBjCAAQxgAAMYwAAGMIABDGAAAxjAAAYwgAEMYAADGMAABo67lgiuwwMxNDTkNm58wn3pL/6b73196WVXumPHjhFeE15jAAMYwAAGMIABDGAAAxjAAAYwgAEMYAADGMAABjCAAQxgAAMYmKUGWi64VohdKpXcL2+7wwfX/+Nr33QffXQAgLMUYNhogde0JsIABjCAAQxgAAMYwAAGMIABDGAAAxjAAAYwgAEMYAADGMDA3DTQksG1MG777XYfXJ/+1b917773e4JrgmsMYAADGMAABjCAAQxgAAMYwAAGMIABDGAAAxjAAAYwgAEMYAADs9RAywbXO3fu8sH157/4V27Pq68BcJYCpMXM3Gwxw3HnuGMAAxjAAAYwgAEMYAADGMAABjCAAQxgAAMYwAAGMIABDIQGWj64PuXTn3UKscON5jWIMYABDGAAAxjAAAYwgAEMYAADGMAABjCAAQxgAAMYwAAGMIABDMweAwTX9GSmUQAGMIABDGAAAxjAAAYwgAEMYAADGMAABjCAAQxgAAMYwAAGMICBphoguAZgUwHSCmb2tILhWHIsMYABDGAAAxjAAAYwgAEMYAADGMAABjCAAQxgAAMYwAAGajVAcE1wTXCNAQxgAAMYwAAGMIABDGAAAxjAAAYwgAEMYAADGMAABjCAAQxgoKkGWja4fve937vTv/q3Ts+4fuzxJ5taSbW2CmA5WpRgAAMYwAAGMIABDGAAAxjAAAYwgAEMYAADGMAABjCAAQxgAAMYqGygZYPrnp5ed84/fs8H12ed/R239fkXXHdPj+vt7XMjIyME2bT4wAAGMIABDGAAAxjAAAYwgAEMYAADGMAABjCAAQxgAAMYwAAGMDBLDLRscF0qldy6hx9xp33mCz68Vs9r+9u5cxcAZwlAWpdUbl1CHVFHGMAABjCAAQxgAAMYwAAGMIABDGAAAxjAAAYwgAEMYAADs91AywbXqvjx8XH30q7d7qc/u8B99b//D4JrwmoaLGAAAxjAAAYwgAEMYAADGMAABjCAAQxgAAMYwAAGMIABDGAAA7PQQEsH17O91QD7R8sYDGAAAxjAAAYwgAEMYAADGMAABjCAAQxgAAMYwAAGMIABDGAAA8cdwfUsbI0AbC5uGMAABjCAAQxgAAMYwAAGMIABDGAAAxjAAAYwgAEMYAADGMDATDJAcE1wzVAKGMAABjCAAQxgAAMYwAAGMIABDGAAAxjAAAYwgAEMYAADGMAABppqgOAagE0FOJNaebCttErCAAYwgAEMYAADGMAABjCAAQxgAAMYwAAGMIABDGAAAxjAwPQYILgmuCa4xgAGMIABDGAAAxjAAAYwgAEMYAADGMAABjCAAQxgAAMYwAAGMNBUAwTXAGwqQFqkTE+LFOqVesUABjCAAQxgAAMYwAAGMIABDGAAAxjAAAYwgAEMYAADGJhJBgiuCa4JrjGAAQxgAAMYwAAGMIABDGAAAxjAAAYwgAEMYAADGMAABjCAAQw01QDBNQCbCnAmtfJgW2mVhAEMYAADGMAABjCAAQxgAAMYwAAGMIABDGAAAxjAAAYwgIHpMUBwTXBNcI0BDGAAAxjAAAYwgAEMYAADGMAABjCAAQxgAAMYwAAGMIABDGCgqQYIrgHYVIC0SJmeFinUK/WKAQxgAAMYwAAGMIABDGAAAxjAAAYwgAEMYAADGMAABjAwkwwQXBNcE1xjYFoNDB0bcvfsvse93/e+X0/n4U63bOs17u3ut6d1vSfjQry3c69b8OQF7tl3f+PGSmMzfn/iOht+7Q136JHH3fjRo5n7pnm6b73TjXZ2Zc4Tl1vv+6HtL7me21e5kQPt07LOIzt3u4M3/tIN793njpdK07IO1UFpdNT13rvGDb/x1rSto966rmZ5HY+xwcNV7Yts6Vge2fVK1XU91tPrum+63R15+VV3fHy84npLI6NuaMdup2k1+zWX5u1ft8Edenhj7jnfiPqQ/b41D7nB57YWOnbVrFNlDzzxGzfW3VvxOI8PDbneVb9yo20dFeetZhvm4rxHdr7sen55lzv2+w+qPpcbXV/+unL3/e7w87/luPJvXAxgAAMYwAAGMIABDGAAAxjAAAYwMMMMEFzPsAPW6Jt7lEdLm1oNKHheuXOlOzJyJPfCP3h00P30sfPcPzxwjnvpo5dcx2CH++FD/9N9f+333L6D+3KXLbpt9++5363bu86Vjk9fyJi1LU+8/bj79q/+3l3w5Hynfc2abyZ+3nf/g+7AuQt8GFEaGUndN83T9tOLfNh1sgJBv13zFrq+NeumJ4Qslfz+HDjvQtdz130+YJ6O43fs3fdd+wWXubbzL3YDTz2bWr/Tsd7pKlOhZ/v8S72X7pWrXJE/NRBQPbdfeMVE4FXFb7JCx65rfuH9DW56vmL9Hd78gp+35457p8dNFds+XcegnnLVEKDj0qXuwLyFrv/XDzc8UI63bay3z3VcdrXrvOoGN9p1sOLxi5fPeq8GFB0XLfYWh9WoIee4KGRtX3C5a194+URDlZx588qZad8p2FWjmf4HHs48F1Q3Ix/sz6y/0faOsgZLQ9t2ejvTcV0+/ML2QtcTu+bIlX67dG0lvObfuTPt/GR7MYsBDGAAAxjAAAYwgAEMYAADc90AwXUL36S0wO/M+7/p7tp1V3LzcPFzVzh9pulcB1zt/qseVXcKUi1kfOadZ/xnClMVqlZb5kyd3wJk1YfqQPuRZS5tHxUSq+f0/Cfnu/7h/sx6szLNq603NJ1WfvjZwaGDfl0vfPDClHD6g74P3D+v+6H71uoz3cNvPOy27/9txUD8rYNv+dB9ZOxY5naH6897PTI24q7avMR998HvOJWbN2+l79IsvtL2ivvHB/7B/+l1pTIa9b2Fgp1XXe/GBtIDeQu6uleszAw/6tkerXdo246ysotsVz3rtGVtPQpAxvqyfdv8tUwV8PiQ8KFHpz0krGX7ql1m8Nktru3nl7jhfcVHUxjr7nEdF1/pFHpXuz47Rgqv9Tpv+eE39vlGAqrvrutvdmo0kDd/+N14/yF3eMuLvne3gjAFYvortM3j4z4Q7blntWtftMQfb7/8vIU+tD20/rFivdRLJV/OwRtucW3zL0m2oX3BZa7ntnvcsfc/LLw/4b6Fr3X8VD/tFy12CiHD76brtUJFNVzovuWOhjUQGdj4lK8fhZiVGtP4eectdANPb2p6L+G0Oh4fHnb9ax+pKrS18DZvasGuLGrEjPGhqQ3QdH3X9V8jXKRtm3q1+0Y3jz/jr18yU+35n1Zu2mcK2jWqR3w8NVKD/Og4pi3HZ/yPPgYwgAEMYAADGMAABjCAAQxgAAMYmHkGCK4JrufUzT6C6xMXKQuQaw2udcFXD+pz1pztrt681CnA1Wc9R3rKhs0uElwrfL5myzW5Abh6di9/cbm7ctNid2j4kF+Xguelm6/yPZ437tvgQ22Fv+oBveiZi/13+j78W7J5ie/trf2+/vnry7Y1/hFTUFypR7mWeaf7d069vq0O4nK0ndp27WNeWN5KwbXCR4UQeYGAermqh21WUKngOWsI6NKxETew4cncQEahiYI0hX42FLT1kMzbrrj+w/elo8fc0bfeScoLv4tfD+990w08synzGqn96775DqfwsdohxUf2H/ABYde1KyqGrgpO+x5YV2jo43gfTub7WoKrkxFc+7q+5KqJ3pdbXix8rMaPDLuDy29NQmILrG1aKbi2HsU2f9ZUvX39cOcZ/x5RWKde4joXssrQdxri286Tao+7bavvebzn9Ynh/9vra8ilc21g45NO9Zi1PTqHdJ53Lbspdz41PFAQq/mzytLnVp5vcNLbVz5vqeSGfrvTHX3nPf+5wlA1Ysg6B3Wt8UOZT+PjAvL2xb5Towwdn1qPrZUjr2okonPOPqs0VeMajQqh+i+bt1TyDSbUQ18Bt76r5fwvKzPFvwJ1Xf+nrH9yXjV8aL/kKjfacfIeVVFpm/n+xL8zqQvqAgMYwAAGMIABDGAAAxjAAAYwgIFaDBBcp9woq6Uip2MZC/wUsIW9U+lxXfvJTnB9ou4aEVyrp/VPNvwfP/S3ytN5sPn3m921W69NAlpznNXj2sJnOb/kN4vc0Eh2z0k9R/rOl+5w//uR/+Xe633XrXl1jTt7zVlOw3XbOajwVz2U83ona1t+/Mj/47oO59/s1nzfe/C7fnSDMPy21wrBNY+9z5qqjrR/6hU+EfKn9/RupeDahxwXLc58jrSFPgpCum9PHxbagmcfqKWEPwq28nrKahsUpClAsuOrXn4aBrjW51tbL131ftWzldN6Jeo5rVnfhfP7YZXV+1ahYTXhdankeu9Z7XsKKhgNy0x77evx3AU+dArrwuqkVaYKrtT7UcN/p+1H6me33unazl9UrPdy9HttxzKvx7WGM1awJafVPkvcyk/CYvVGnn9pEiBXDK4ne5NreTnuf3C97+mt4FA9vnXeWBitcNA3qIj2UcdWtpL5Fi1xajCiobX1pyHm/TbJ4XkXOg2HXrWHUsn1P/ToCcfHj/sGJ+rdXSkozluXtk921SM89dhPDiffsXiZD5Bz59EQ5ucucJ1XL89twKG6UV11LL526jpvut0PFS8LR99+xw2/utfbk5943boGqF71GARfpynXr7x9b8Xvagmu7XEGsqDrte3X2KEB13nldWUNm9KCa9Vz13UrnM5DWzaclsbGvOG4/u299Qy3YxYuq9faJ4Xr8ee8P/FvPeqCusAABjCAAQxgAAMYwAAGMIABDGBgphkguE65SdwqB9ECP4Lrxl1YCK5P1GUjgmudKwqp//XhH7nuoW5/81hh9rkbfuJ7GCuUNsdpwbWGG797113uO7/+J/fom4/k9n6289KCbvWqPnvN2W71nvvLhg8vGlyHw8Vb2fFU25w3hPz2/dt9cL7gqQW5gXtcbtb7Vgmurdeinu+c1ZNYPd0UKijwSnuGqAWGCogVXmSVk1UX+jwOWhScKEDJ2y71rtU2KVhPK9vCyLyw0w+ZfO4C17vqV3X3ckzbBh+Y/XzRRA/ZCoGY9YRV7/ehHbtrqse0bZiOz9KCq0rrmc4e1753/qIlPmAbbUsPzvK2Tz2F++7/tT9Ox9573w9TbCMRKEQtElx3XXuTO/zi9kxHCkUVOKu8tOGybTh+H34vWuLS9mN47z4/OoLmyXOdta+2fNjzuDQ60ctbAWI8PHNWOfHnR3budl3LbnTjh7MbI8XLpL3XiAMKSfXnryXj4+nn9uR84TYPv/aGbyAwfmigbBntkx5xEM6rhgPqgZ1Wx2nbNdM+i6+nRbbfrpdxcD38+ps+2A8bqchP2HBFjX/07HrvUg6iY2Drj4cBz9pOmfQNd4Ljr2t02rD/cjLw9HOZ552tm+mJfxNSF9QFBjCAAQxgAAMYwAAGMIABDGAAA61igOCa4LrsZm6rwJyu7SC4PnHxbVRwve3Dbckzsu24KUxWsLz191syg+s7d93pVu2+x81/4ueuc7CzKodP/e4pHxgv3by0LLTW+hsZXOvZ1XnBtTxV6t1tdVJk2irBtQ8lFl7uNNV2Dzz+jA/v7DmoPki6erl//rSCDYU/YY86vVao7YdwzehpV6Q+4gDDB5ELLvdD+2qd8V8YlPSsXJUaXiuM1LDEmQHf5BC40zX8rAXRYWCWVRc+XFs50Ss3q9d61rLN+LyVgmszrGArqxFDLXVUTXCtoZ0rhb7Wc1XhnkYSUC/lcLvC9fXcfX/ZdzafNejIKsPmS5v6RipXL/fP344DW2/1imt8Q5Bqh6lOwualy+sOrtWQpPfeNfl1WSq5vtVr/bld1ktc5/Nd9zmNjhDW7eGt23zvbW1nUi8Z8ybft8C/F3VM9KznrG1SQxDfkCgId23e+Hpqn1eaqv59g4Fg/9XLWaNGhA2Sajn/09adtZ0Wouu3RddPXe/VWz/u0Z/8Dsxb6N1Uazdtm/jsxL8dqQvqAgMYwAAGMIABDGAAAxjAAAYwgIHpNkBwHdyIm+7KrrZ866laS4/rOJTUEMuP7dvofvTwv/jhijVksV7rM32XtW3q3brjox1u8abFPsDTcjbk8f9a/68+eLTnDcdlWEis8E/hpnrlallN9V5lr9h2k+81q3LVA/bAwIHMbVHv3H0H9/lnHCsstO344bofulu335I89zjejvC9bVPY2zYtLAyXma7XpVLJbdq0xf3N6We4/37G192u3S9n7vt0bENsROvIMlft+l8+sNv9wwPn+CHurcy4x7WG6tbxkINqyn/23d+47639rlv41AL3g4e+797ve79s+UYG19q+rOBaz76e/+R8d9mzl2Y+21r7Jbfr9q5z1z9/XcV9TbOoIc/lvZEBeW59T4Y3GiK3/6ENPvRTkKChjO151fo8DFLVg1hDXqtHnR8e+MrrfGit3s+566pw/Y0DDD3XWuvR87Hjcg898njh57dqGOCs4Np6uFYaflaBpIZ+rmaIcAui1Qu94lDnpZKvYw17XCTkjuujGe81jHvY4zJuWJD6vtFDhZdKbvCZzT4E1vOMw2CtEXUSBsny2Ygy5VGhs3rVq/ywzKLrszLaF5QPrR+WFb82j3447K3bytZr8+rZwu0LLqscHAfnsvXW1j7F4aaVW2mqRir9ax/xz3YeeOKZ/ND6+HGnIFo9fse6J563bOVrW3wjBj2n+ZXX/D6qYU3n0htSn5vs5rjnvAAAIABJREFU551/6cS1LtgnK6/ZU3nQEObqAZ12PtljBdR7P362eHw9rXVfdI1UT+uwsZLKmvbgerLRkaxX2na/r4uXubKGCS14PCvtB99zIwADGMAABjCAAQxgAAMYwAAGMICBuWiA4LqFb2RZ4FdvcL329bX+uboWOqs8+9NnGqpZ4VraCaCw0ebNmuoZwC999NKU5S0k1vcWNFsZ/7Lun901W67xIbp9pqnCSAWC8bYo3Fz+4vIp84fLaj0vt+WHv7ZNrRBcd3UddH9/1j+6Uz79Wf+n1/os3vfpej+dwbWGDVcwve3DF5MwPA6uV+5cWdW+yuhDr691sqNg/K2Db/nnTz/65qNl5UxHcL37wG7vL3yG9eXPXu7OWXO2b3ARfh6/1jDidu7pu7ygvhWCa3umqUKngY1P+uBPIYAFvQqyBh57unwI1smQVYGshobVkL5h78ZaDYdBy8Tw5Tf4Z+aql2pcpp/3sqvdWF//lO/ieS241jDC6o0ZBkAKZNp+drEPyMPP49edS5dPPHdYz7d+eGPlgHSyjlSPQ9t3+WBfPWjHBg+nbq+COAWK6h1e1oO0hX+zdAwUqh393bup+xQfB71XD1H1bvemjh/3vXOL9pC2HphmU8upZ273TbdPCTDT1l3LZ0WD5GrKttA5LbhWAwcbbjmzx/XoqN9n3+O64DmgQF9uZV3WbHt1zvsGK0MnfofNohqN5PX2tTJUtgyooYuOycj+j6acZ/H5FL4Pe8wWObd0TdLy8XmigFVDfx95+VV3ZPcef45qe3puuzs1tFbPdZWhhg+Veson+3qSz0fzp5A4bRt8ePyzi1OD9/B6mrZs0c8OPfpEmRlbbrqDa61H50rR4NquC7Z9TPkffQxgAAMYwAAGMIABDGAAAxjAAAYwMDMMEFyf5JuO1ZwYjQqu1cNZAZt6fL7T847v1fzr1x5IwuS0Xqu2nQob9RzhS39zqR+CWT2iFXh+2P+hW71ntfunX/+jD7b/ed0P3Qd9H5TdSLWQWKHdzb+92a/3gdce8ENIK3C2z1WWvtf77z74HR9I2vo1HRkb8cG7LfPzJ8532/f/NtkOlfn9td/z26FQU+WFy4evbZtaIbh+973fu9O/+rdJcK3X+izc3ul83ajgWo0F7nvl36YEskPHhnyDCHMcB9c6FkX3T40Z1HDhyk2Lk571Vq4+CxteTEdwrbpqH2hzfcN9yTZrOHSdW52HqxvmPG+fmx5cl0q+h2Tnkutd+8LLfQ86ba8CD4UACnWOvvW78tB68hqqEFjBW9v5i9zwy68m9ZS3v5W+C4MW/7zca1c4DQHun3MaXbstjFaYWalcm1ehsYK4ZJnJ3uYKu4qGp5XW5b8vlZz1FrfnvPqerBdc5us5DnqHtr/k67LeodYLbVtUj/Uso8YKcXhYsbxgOG314NQ+q/6LlBMG12pw0X3rnT6krKaX9fjwcKrnrO224FAhsXxmzVf087KhwlNCZ/UYVu9ZrU8NQ+LhvLUee0a15qk0UoDfLnl8epM3pmlYX9onlaMGE8mzqW3+n17kGyYMPre1qjrTOscOdhc6ptoWnStqtKFrkA/RUxqqhPV77P0PU4Nm9dTWiAUdF1+ZNKaQ0bTrh8rruf0eP+x0oXC+gedNuC+VXpu/3OA6pee+yg2vp5XWk3xfKrnDL2xP3KkX9/Ce18vM2LzNCK7V2ODISy87e4yFbYv2leB6ZvyPqB0zphwvDGAAAxjAAAYwgAEMYAADGMAABswAwXWTbj7aAZiuaRhKKhBO61W9/o2Hk56g699Yn3oDXsMUp/WAtu3edWBXEoDHQaSFxArGbQjwviO97v999Mc+ZNZU71WWvtd8CqcV3ln5muo5yXpectZ+aB6F5grPtfyt228tWz4sq5VeN7vHda11od71era09Sy24eeve/7a1GHnB44OuHkbz3VxcK3jpWdcVwp+ZeOK5y53L3zwQllArbBavZ5DR9qn6Qquw/rqH+53P9nwf8qs7e3c67cxb+j9sIxWfH3svfddx+JrnYb+Vthj4UheCKCeieoVqZ62GjZbQwNruOieO+51ox3Zz2LV/is4Vo/brLqwoGXkowM+vNN26TP/DNfg2m3PrVZwGYZwWeVacJ0E1pNlqXer9ntw0/PJNqm35tF33itUbur6FMQ99rTru//XU8JwPTtWwZr2yS+rkGjLi67t/Iv9M8LjoXhTyw/q4WR+r960OsZhT9l6Xie9bM9dMBGcFgivw+DaB92l9JFDsupFz+3tWLSkWI/5yXq24LBRwbUs63xReer9n+ZXDvRcX82j8FrL6LxRCDvw1LP+3PNhc4E6s2BYz9OW7bhudM6rLDv3w++tQYW+13mi0DsODMP5q36tXuDrH3NtP1/kj0k9jUd07VEjiPjZ1nnbpOuCH8Z//0dT6iVvuZP5nflLOz7aDn2e1nNf39n1NO+aqxEr+lY/eOK8vun2iUYEGoL+3fLHcsT7nbnuyeOq60WRnux526ljpL9w3XovM7qe2ucqg+Ca/9k1D0yxgAEMYAADGMAABjCAAQxgAAMYmFkGCK6bdNN/uk+UMLiOgz1bdxgWX7v12uSGn31fZDo8OuwWPHmBD4wVIoY9Xy24Dns3q/f0omcu9vNrqvdaj/WeVfCsHtS2bn2vZwjr87Ac+z6c6nnZmk+9YDVUdfhdK75u9jOua60TBbNdh7ucjr3K0HHW884PHJp6s1/PJJcP9cyPg+s7XrrDrX39QT8agHrRa960bRobH3P6i7+zZz/HvfQbGVzLlAL2OFzf9N4m/5ztN7veTLbLekvLadgzO97uVn2vQEHBgoYFVrBRJLhWz0U9U7V7xcoTQwgrfN38wkSYpt6Oly51ffc/6MtVz9Bw/xXCKPBWwJAWeipE90HyM5udhqdV6KbQLh4yWUMCK3DSesLy0177Hqw33T7Ro/TIhGGbTz09tb0qzz5TAKKgTsFqaWTqs7VtvtTp+LgP4BT4pQWSCls1/LLvcR30NO28evm0DXWdup21/A6Ojzs/ZHuplHiJAyWtS8dYx1DTWtddGhvzAW1spOe2e3yvXPXM1ev4+7z3Pbcq7LrEH9u8ZzzH22zBoUzIRvx9Ne/HevtOBNILL3dqOJK1vEJcDeOt80XrDv/sHKkU9Cpk9kPj33T7ifM1OvYKH1V2VjA68sF+17F42Yn1z1voNEJD3rZn7VPZ5+Pjrv+hR/2zp9N6lZfNG23zlO8mR47woz+8ujezTuPl5DcMO9UwQI1hWqkBifnLOj6Z4XHB4Fp1oudC27Oh7bdAjRRKx0bcwIYnM88zPWM87Rn3eh63Gujor0h4XUtwLZO2zdoHguuZ9T+j8bnIe44fBjCAAQxgAAMYwAAGMIABDGBgbhsguK50A3SGfh8G1xYYxid7GBZnzZO2jMoO/yyIjoPltOBa5WldCpjDdYbbouVsvWG4XumZyBYcKiR9reO1pAwri+n0XOx0vOJjf2j4kLt26zL/uYan1/d2vM2mHWf14NbzyTUk/db3txY6bhoFQM9D1zJ6fvr2/duT5RoZXGub433Tuuc/Od83qLCGF7JVZL2tbFA9aC0ctrDCwpE4BFDP5O7bV/nn6mqYXtsvH8TecMtE+D142PU/uN73hFNg0bd67ZTemRbCZAWAGup34Inf+GVt6OjhN95yXctunAhNJ6/P+izucWfbFE+tl24csiqs9iH7mnXJ/mjZvBAlLrvW92o0oCGefU/12+6ZUk+1lnuyljMvcZ1q/TrGRYNrDfnrhyFO+d1VKKshnMMem3Ysw7BR69Sx1HFTI4VG14GZrTe41n4oWPcB9HkX+sYemdtaKvne0fIZBtbJa4XHV17nNFx/ahmTy2sI9sMvbs8d5lvnvMq1cz+tPB0LG2VBPb6Pj4+nrzflOMblqfGLnj/dv/YRX2Z4fON5i77XtUzP7rbnYw+//mah0QE6Fl3lG0JYIwirb9WtQuyi65/O+cxf1vHR5/X0uI633c5tW18ySkZwzOPAv95rZt7yWld8nYnXr31QGfF1Id433k/PvwmpV+oVAxjAAAYwgAEMYAADGMAABjCAgXoNEFwXuLFabyU3Y3kLBxUQW0AYb0cYFluoGM+j977X7GRIqPKy/uKAT+vVvPHnWpc+D9cZbku4vS8f2O3+4YFzMteZti0KMtUbN21f+KzxF00dLzvGCnXVi1qNB9QDf/DYoO+trF7L1vDAbIbHefeB3e47v/6nTKvxcVvz6hr3nQf/yT9nXcdbobHNEwfIx8aOlT1/23r92zbbcmnTtOBaQ9drWxW4h8vE69V3et661lM0kA/LO5mv9dxl9ea00CgOKywE0FCxvfeu8QF32LtN26oyuq5b4XvVqae0wm19rjJH9n+UlB3ul4UwKj/8PHytkCx51q5Cyb7+iZAu6EmpcDsrrAnL0msLO+PwQyG5AlbbblsuLUQZfvNt13nVDZnPyrVli0zHunt9r2v1+j204Ym6QsAi65uOecyLgr+4l/PBG3/p2hdc5oZ27HK99/16yvc2v/WA1jDpFpJV2lY7lmkBVd+ah/yQ95XKqPZ7M6twN89tbrkaOvnhjRO9UM9d4OvEzr0py00Os2w9VlWfI/sPTPTgHx93Gu5cwaq2J63nuHxp+P7DW15IPQfj9anuKwXXtowfgaDK4dltWZtafXbfcueUofRtHpuq573+7H3a1J6Trt7WQ7/dOTFvqVT+LPuMf/elBaBp62jmZ1ZfWeeIPs+6FqZdyyrti53bWetLG8GilvWE25G3vI5RfO1OO24qI+26EK6H143/9yB1Sp1iAAMYwAAGMIABDGAAAxjAAAYw0AgDBNcZNzAbUbnNLMPCQQW7YUAYblMYFochss2jYb9X77nfP186LSCOP4uDQK1X88SfVxNcKwyM11PpPcH1yb04hsG1nlmtZ5FftXlJ8mx0G9L7ibef8CGC2QxdyprCaM2T90x12VTI/f2133NPvP24b6BQKbhuG2hzN774Cx82q2e3/rSNGsLchjs38+FU26TwPRzSXs9S/5d1/+zLWrxpcfKcbz3vW8Odf3v137uLnr7Qf75k8xK/nfKqoLvVw+tw3+OwolIIoF6T6p2o4brV+zksK++1hTAqP2++su9KJT8stD0P2IIThXd+6OoK13SF4J1Ll5cNKz78xj7XNv8SH1z7nuQrVyUBq0J4hWAaMlghqwWsCve0v9r3su2rsH6b1/cm3/CkX2eRelOwOfjcVt9AwMpolal5iQMlbZ+OsfW4Vq95DQN96JHHp9SZf774RYsnnvMc9ObM28e84FqNLA5ef3PZ8MF5ZRX9zszWE1xrOH6FzCqjZ+Wq3MBW+9F+wWUT8952T2r4rHrV8PLe5CVXlT1b3gfiBetTdVBNcF20zvLms/rUiAyZ4b0arAwM+hEe8upL83Rde5PruOIa3+O6d9WvysrU6BDqtZ+1PWkBaNa8zfrc6isrSD7ZwbUaEun56+HjG/KC5yL1lre8jlF4nSkdPeY0FHkcUlf6zSqyHcxzcv8tSX1T3xjAAAYwgAEMYAADGMAABjCAAQyYAYLrgiGDVdhMmVo4qNAsDAjD7a8UXKtH6TlrzvbBsYLCh15f63r+P/be/cmq6s7//nNSqampVD3zTE3VfGtq8k3Nkzz1zA8zk8Qkc8llZpJ8k4wYieEqAgKK8YaKgKB4QRC5qCAKKhcVEREVuWiQEBH6Qjd9obsPNH0Ov6yn3p/uz2Gf3Xvvs8/p092nm9cPXfv0vqy99lqvtRvOa30+a6Bz1Je+LqLjgrrR4nrr8a0VKcr1jEk/Wo94cOjqqHpGn53PjXsJRsW12n3zsRdCd6G73P6a/CB+znYNr9/qbCZxuf3EtqD08Gn9owhmrWEuQS6x7FI8K+Lay1L09917F5u0/t7z3w17Tu9OvY+u8fERndShe77+x9cqIry9/KSIaz821bYuIl2OpEqAYtFkasvsRRZBWl5jd2Sda8nlLBnlEkbl19JGl9/cH1rnLrboaAnPljmLKsRJVln+bBX3LBaDRLIiqePX6jyJV10XP1bv75JnWhtcolEpjTsefaIsyj0COb5VmmdF3Zqg77ixBne9dWjkdd6mUaHk5auPXVxrnyYaaC3y6Dri2q/1xSVoJWr92mrbLHGtNcUVaax2zGKw2j3ix53ZesW11jv3tbXbl68wIRu/R/R38eecFCJZBqLn6LPGhM7Tjz7Hj+f9faziWiKza8Pmqjw734ogV4p8rY/s+5K2nrZbz5ckr2397sfXWcp9pQZXG/v7y5/d5ffA0U8S2wdxPfrfBT62423pbarxoHXXL+99u9ymae9MpVvP8x6NXy85PXD4Q5sEExfX/g7QxCKNea+XytAEpWi2Dj/GdnQ/0ya0CQzAAAzAAAzAAAzAAAzAAAzAAAzAQDMxgLhGXJuYjso5B/S+A/fZsZ+8+ONw5tIX5S8E/bi2nnZZgnw8xHU0Vfj2E9sT6xCtD58n/gUbFdfx9pfA/p9XfmMR2L4edJa4fu7j50xGx8vR75cGLtna0hLhEsja53zkEdc6XzJ65aHHLP190j2i+7oGLoVfv/yr1Ikf0XP1+WYT15KvHStWh87V6yujGEul0Lt773BE6YzZw9G1KRGfLgElGeLtmfW7R+cqSlMpzhURLVmVdY0fc9GdJmL8PN/GJYrvr2frawNrPW5F3MajBLPK9LZSyues8yRvel/dY9HgHY89EZQqOvP8BvwNdLmVlSpc9fd6KHI8Krp8fXGPovfzqm1dWqW1o0SZokGV3r5R8tr7QQK1Vm4V2e/R06qX0lpXe0aJOt1LkzPEbtr5vs57PfWKljlWca2ytIzA0KWuCpEYvUf0s7dn3vEYvdY/S1pLdl/es8/umVWm5L/6QO+oqOhUWVNJXKeJfu2fyFThXRu3licReX+kvTMLHx0z+eznpW3t+rmLg5aA0IQdRVQXjp+y/oqL63LE95r1FWMjrQ5p92T/xP/bkTanzWEABmAABmAABmAABmAABmAABmAABtIYQFw34Ev7tMadzP0uB+uNuO6/2h9mvnq7ietoquT4M7ncGy9xrejbn2z5sdVj+YF7y8IyXo+p+HupVAp79+4Pf//Nb4d/+PY/hiMfHq344nWqPFOWuN5x6hXrv1PtN6Sis5kUca2I6KRIaEnr2a/PCjs/21nBgGSx2MsrrmtpU2fPU5xXu7aauB4qDVXUvVp5k3ncRaTLJEkAl4OSUoqotKjZWBSyxKzS83pk8OCfz2Uy7YJJ5df0vEoXvu5Zi1aWtJbcKEd7V3mnS/ApWjtvSvOqAkRSPhLpl/QckqaKgm1RKuxVT5mArFWSeVt5nyTdR/ss2nTm/HL0bVJa7rRr693vvOiZ4mWo3tGIax2XgNWkB18nXdHuitq/eiZ/tLXKqSaudU7/wfeNE7W7BGe8frX+7v1QqyDWutQtdy4dltBK551DWqtualMT17MWZqall5BV9H6t9Yo/fyPEdbzMrN+9PatxnVaGoqj1Poqm7M8qU2Ox45E1iXK31jGpcd+37x17n+idp6jwgQ/G9+941rOpjdSOEyWufcKJ5HW0f9LemRLRWf2svuzb/65NNtHEns61z1SkvffxHn3PqN9bZi0ctfyA6qAlGOKZHaL1nIz+q7h/lb9VnMt/3mEABmAABmAABmAABmAABmAABmAABm5WBhDX0/SLI5eD9YprT5Os67PE9d4ze21d3/ES14rSvevNBVUjv6fiAG5vvxi++/0fha99/Rv2o8/aN9WeJU1cK633L1/6ha1FHX0mn+ygSOzPLn5WTvf+xhdv2FrQity/2H+jHSSQtdb08bbjo9pmrOJaa1Z/fjF5TWZFc/9sy0/DsdZjo+4bfR7/nCWulaZcWQ3u2bdswtLYf/XV+fBfP/9V+Iu//KswZ+6C0NV1I3271zlt6yLSJYMkgItri1xNiKC2da4XLx9OG/vWgXB95Byd3/3iS4lpuF3CqPy0umj/tdb2MPjlVxXnlNf+vW1O6Hv7vYpjWWXp3KpCI/J3IU3C6B6KZla79GzfmSivhy73WQp1rT+sc1zU6tpaJZm3lfdJ2jNGBeZYJWbaPeL7nZeoUPJzVO+4uJYw0sSDnm07TGKrP7q3vJzYhl5O0tZFlrOZdI7u5RkAWhcvrxCciedH+j7puPdDLW0rSV2PtNb9tXaw7qV02kqXnFQn7VOqdTvv1lkWqZp2XrX94kvlVOOsWjl5j3t7NvJ+1crUZAaJ5vg9ax2TA0c+Cq2L7wtXTp8JpaGhMHD4qC0BkBUZn7dd0s6r9myqg57jWkvbKFay3mVp9/OxHW8rjStlvFDmAIuuj4ybtPtoslM8jb2WDtDkGksFP2N2UDaK7s3bK96VXjeNd2X4KHz8afnZbGLKb+eG3tffDP2HjpQzKxSOn6zMBBKpn5c3Gf3n92bLFw8wAAMwAAMwAAMwAAMwAAMwAAMwAAMwkM4A4jrhy6zpAMxYxbXaYOm+JZnCWGLyv7b+p50jcf2fW38WtL60t5+EZpLQ9jWxo+nJo6I8Hol74E/7g9YkdokeXT/Z76Wt0kdLbm76ZGO5DtHjzfb5izN/Ct/81nfK4lqfta/Z6lmtPkniWn0067Xf27rontY7Wo6imG8ZWT9d/eo/6ucVB1eU5a6ilNX/A4PJkZIq54ebfmApw738LIHs5/hWa2QnRXjruFLTS67rWbSu9bJ9SzN/frdrpk3imLt7zqjzVI6e8V82/POEyeuHVzxWZkuTI9auq0yl6m2QtI3LComINDkoGWvRzxIOm7YFyVovs9jTGy4+vMpEmMRdPMrUJYzK92t8q+hYCUelvrX02DFZPtTTG9qWPmApt/sOHBx1vZcT30qeKIW21k1VpG/SerrRfRJTiurWGqrR/fpcXndXKdFj8lqRg6p/WsRfrZLM22qUQIr9DVPkecfq9SbmJCDjoijeHo343XmpENelksknCSWlZlZ7KeWvIvKvnv3SoqslvbTWt8S+oi1rrUs1cS0WLepfkbH73w0XZs6zdul84ulca+0m1cf7QW2bxG38Gj2X1rLW+RoDiryOn5P1u2S1pLWuT1sTOyrG06Jts+4RPSa+dK9qnEWvGctnb89G3q9amUohr3WyxW207rWOSU0qiE+a0fslvi96j7F+vvLZaRszesZay0oTylnlDH513iLK4/2jd654vvL56VH1UGS1Iqb17lEb60dyv3XRckt5H1+rXeeJcf0dif79GFUvZbaI/B2Q9Na7XO9hvWfV7rqHrWFeJQuGyp6M/hv1TLH3N8fT/8NK29A2MAADMAADMAADMAADMAADMAADMHDzMIC4nqZfGjVCXEeFsaS0JKHKlbDe8PGG8K8v/Mhk3Pc2DEvlH7/4H+Fs141Ur40S14NDV00EutxUFOymY5usHqrPyfaT4YkPnjBxrnOiQryZX2ZTPeJaMllrUosNpXP3taeV1vv+t/8QDn6ZXybW209rDq8J/7753yxy28uoRVzrXJXh1/pWsl1py1ceWmnH9Kzne74qC3U/L7qt5b7R68brc1xcz7xjdigUCqOeNen+LiJdVpi4VjrugRvXS1hr7WBFyypytkI4lEomD3RMkY0XH37cIl0lGqP3c8FUFoClkp0ngaQoXQkNi/COvadNBt7/qKWIVZpYidErx2+ko4/eI/rZRaevr6w6m7yKyJDo+fpcj+yJl5H0e62SzNvK+ySpzOg+RSIqNbkkcXT/eHx2XmyN60fWWN+p3yVAbT3vmfMtGjIqnRSxKX4krGqZeBCtv/dnxaQKZ2jVU5aOPPr8liZ+3t1WL9VPKeYlhuNcRu+hTAKqn/+IB0/JrckMvl9breErmebXW/3ue2S4HdQGB98vizy1WdKPJlT49dpGy1B7SvZLwku+6keTIzRWdEw/kvLROkTLyvNZfKmcvJzlKTPrnFq5zirLj9VbZq1jcqqJz1reZXo3SiTr/arU6m3LHhyeeFQq2VrimlB07ULyGu3iUpNR/B3gbNrfgvsftUwV3lfaivGBDz+uOeOC93P578f16yavNdFIf3OutbVXjKXoPfV5qvVfvP78fvP8Z52+pq9hAAZgAAZgAAZgAAZgAAZgAAZuNgYQ1zEhMl0AaIS4Vpru1YdXWZSoS+P49tcv/yps/GSjnXPLxu+HQ+cOlb8obJS4Vp9IXj/87kOZdfG6KVJ8KvTjVF3jWlJXab01ceH2V38bJKrVP6vef9xk7yctn4SeQs+494H4VBr7n2/779DR31G+Xy0CWVHVSanwlTngtp0zbFJEXpZquW/eMsdy3p/+dDb85Kc/L0ddj0VcD3V1lwWyRKDkmCJoC8dPVUTAqb5KkytpIElha74e/SRVSLh4kMBUlJ5Ed8sdCyzta9qa1UrPLSkigafo1cLJz0PL7IW2rmv/oQ/KHCS1ndKLW3Rv56XM86LX1iJ7otdV+1yrJPO2yiMU1XYXH1xpEwokiKvVpZ7jg+e+Cr07d5vUMnE6Iqo1iaBz1ZNlIax6j0oVPiKYtK5166J7LRL68p59qZyk1c+k7r0PDWcD6Ok12dp29x+GI1LFZsKzu5CLSzWxd1kp7mP/JlD/l8XbiBxO+71CoF+/Hq788QvjOe38pP1J/Wsp6UeitpOusX0zZoeOR5+oK3I9+syI64cyJzJE26pw4lRov29FOVV4//tHgtLRj2eq8Oj9a/2saHCNRZusE+O8XFapFPrfO2zcRjMEaAJH+/KHLVV3UgaM8vVp5TZ4v2cySMpCoEkkivjW3xL1SVrdplr/pT0H+/nyAgZgAAZgAAZgAAZgAAZgAAZgAAZgYLoxgLhu8JdpzQJII8S1nkWS8r0v3wszdtxaTtctQayUzvcduM8EpaKsFXGr/Yq69TZopLj2Mj/v+Dws27fM7qe0y14XpSyX2NaayUov7eezbfxL++mj620Cgdpc0ffexmr3J48w0nPxAAAgAElEQVSsM6GtiOsPz38Yugpd5eN+XtpW6eLF7enO0+HQufeCxHTaudrv3CkyWpz6uW+decvqt+XTF8v7/Fh0q2uWH7g3/GjTD8OR85Vfbmvt9nv331O1DtHymk1ce93Onv1z+If/5x/DWMS1l6Vtsa9/lKzWfsmazlVPDQvrxSPpWjMimXWNpYh1GThjdtVUsRYxO3+JreEajfCWgJAwlYxUuvI06a11gKPRedHnSvs8nuJawl1tpkkA1X5sMsBtc6pHwpZKJqwt8nbwRvRv2vPVu1/Rlh5RL1mnlOBJadGTxLUmGLQuvDeoPxVRr7oq8jpPlGS0vorsbJ2/xCYtSFIpTbbJ5yrcqQwTcfc/ave19bVTrhmLuPbJBqmy2dmPbJPEtT1zsRjUbooSv3DHnWWZ3jLrLhPWNokkQdRH2yvPZ8R1fnGt9pQY1TjWu0eTJpTKO087j/c5mtShtPw2OWTe3ZZ9wSYTaU3qru7UOkpam/RNSGtvkdTLHrDn1LvbIppTxk3a8ymjgMR5PLNA2vlJ+30JCrW36jTqnFIpaExr3Klvrp65kQkofm6z9l+8nvze+H/L0qa0KQzAAAzAAAzAAAzAAAzAAAzAAAw0LwOI62kqrhl0zTvopnrfKLp65aHHKqLro8906uKpcMdrd1REx2uSwU9e/HH46ZaflH802cHXLvdoeW1nvnp7Rcp5ld3SeyEsfHNhuOvNBeX1o3+x/efhBxtvMckdvb8LbQlpRYG/+tnOxB+lu/+3F/7VJj+oXBfl2mpyhNa/jpZb7XOziusDb78T/uIv/yqsWv1E7ueRWFBkXqpEG3lvSjoWjp2wdaiVnlUSVkIwKdI1qf0UMa101hIQdl3K+1giWkI6K4K78OnJYYEkWXHHgtC9eXvFesKK0FNq52ut2elj4/UcT3Edj9CN3zv6u0vQnpdeTe9HpfF960C49MymoDXCo9ePx2etJau1a7PKrhDXpZKlttZa14oi9uvEkfrLoqBHIvUl8rOY0LWShDZhYWT952qpgf1+0W1R6fNrlG/R66fbZxf11cZ+Pc9tY3D1elsb+eJDj9tkDa1xLsHYyPv5WMkqUxNwxJyWOVCErpYP0HuoljFZTxtM9DX27tzyisloja+e7TvL4y6xLiPvkNS2KxaDIq4ty8LIhAuJ7ta5i22f9sd/9I63sT3ybh61tETKe39U/XwJijuXjpq8FD/XI7IbzVb8PvzOv7VhAAZgAAZgAAZgAAZgAAZgAAZgAAZgoPEMIK7zfmHGedlfdtI+tE+MgcK1gkVdKwp7yb4l4f+89MuytHaBfcvGW0wcu7iWzD7fez61LY+3HS+vZS7p7etqx/84aH1tiW2Pyvfy41uVsWzfUkt37mVIWKvO0ShuP5a1lbiOp8vPOn8ijvX2Xg6//s1t4a//5u/Cxx9/ktqu8bpkiWtFymldYKUllki+9OwmS9edtBZ1vNyk3yWZ0iKkJRQlYpXeW2Kp2j0UBSz5JJHStWlrRQRw3zuHrIykOmTtk8hrmbOooel/tQZx59pnQu+re3KvRywpq8jyvJMCsp5pIo+VxfWxE6Frw4tBUe9porjw8acWxa0053nTLfe9/V7ofvGlqmxM5DNP5XuNp7j2dtGkim7J1JnzTFpLeubtby8ja5tHXNv1pZJNvNA7w6PitWxBVtlT8pgikF/YZqK+2js09/OVSrbGde+evfYuU8ruUcJ6JBLd21Zrwxe0dETs3wp5ftcSFcrI0LbsgeElKnJkF7CJLfOXBPGQ5x6c0/j/ZNKmtCkMwAAMwAAMwAAMwAAMwAAMwAAMwEA9DCCu6/gCrZ6G5hoGKAw0hgGlEdfa2orsbnSbKt251mzvHOisuWzVS8J7Itb3zvPcly/3hcVL7rE1rh959PEwNJQ/hb5SPneuezZca2krt4PEceea9SaEJVCVijZPPeo6R2mRD74fup7fkriOdlaZkuCWGjYiNooDhdC747W65KbEudZfTpXr/A3J5EBR05LV5dTC1dqrWKyrn7KY4Fj+d2/vrj25062PtV016UARzoN/PpfJUK33UfYFZR2ILieQVYbGttacVyQw4zw/K1lt2qhj11paLTJfEypqzZahST4DH348vn+rqr3PON7Qsd0oriinucY5/UF/wAAMwAAMwAAMwAAMwAAMwAAMxBlAXPOlEl8qwQAMTDMGjn16PPzDt//RUoQ/8NAjoVC4Qh9Psz6O/zHnd/6BBwMwAAMwAAMwAAMwAAMwAAMwAAMwAAMwAAMwAAMwMNUZQFwjMxBaMAAD04yBL8+dC7/81a3hnXcOhiLr98L3NON7qv/Di/rznwcYgAEYgAEYgAEYgAEYgAEYgAEYgAEYgAEYgAEYSGYAcc0X+kgdGIABGIABGIABGIABGIABGIABGIABGIABGIABGIABGIABGIABGIABGJhUBhDXADipADKjJHlGCe1Cu8AADMAADMAADMAADMAADMAADMAADMAADMAADMAADMAADMAADNxMDCCuEdeIaxiAARiAARiAARiAARiAARiAARiAARiAARiAARiAARiAARiAARiAARiYVAYQ1wA4qQDeTLNEeFZmRcEADMAADMAADMAADMAADMAADMAADMAADMAADMAADMAADMAADMBAMgOIa8Q14hoGYAAGYAAGYAAGYAAGYAAGYAAGYAAGYAAGYAAGYAAGYAAGYAAGYAAGJpUBxDUATiqAzChJnlFCu9AuMAADMAADMAADMAADMAADMAADMAADMAADMAADMAADMAADMAADNxMDiGvENeIaBmAABmAABmAABmAABmAABmAABmAABmAABmAABmAABmAABmAABmAABiaVAcQ1AE4qgDfTLBGelVlRMAADMAADMAADMAADMAADMAADMAADMAADMAADMAADMAADMAADMJDMAOIacY24hgEYgAEYgAEYgAEYgAEYgAEYgAEYgAEYgAEYgAEYgAEYgAEYgAEYgIFJZQBxDYCTCiAzSpJnlNAutAsMwAAMwAAMwAAMwAAMwAAMwAAMwAAMwAAMwAAMwAAMwAAMwMDNxADiGnGNuIaBacnAlc9Oh851z4ahy33T6vl6Xno19GzbEUqD10Y917X2i+HS+ufDtbb2Ucca9YdtqKMzXLz/0dD3zqHEOjTqPhNRzuD5lpr5KF65EjpXrw8DRz4K10ulmtp5qPNS6FixOgwc/SRcLxarXqs+7n//wynfzuPRl6Vr10LXxi3h8lsHcrVlLXVQ2b273ghDHZeq9lGxv394zF1orXpuLXW4Gc8dOHw0dD6+Llz9059rHluNbi8b508+F/refo9+5d9IMAADMAADMAADMAADMAADMAADMAADMAADMDCBDCCuJ7CxG/3FKuUxywYG0hno2rg1nL91VmhdtDxca2mcVCr29QdJjWptf+X0mdDx2NphCdOg94zu237/o+HCzHnh8p59iXXoO3AwtMxaGC7vfXtc5E/h1Oeh5Y4FoXPtMzVL32ptNtHHu7e+Mvwsj68LHWvW5/q5+PDj4fxtc0LLnEU1960kZ/u9D4ULv5073D9VuOjb946d2/nE08jrhLYautQVWu+6J7QtfSBo0kaj+NGEhta5i42NgiYZJNzb90myary1zF4YCsdPZZ7r10yHrd5Fl57eGLo3bUtlU20z+OdzqW2i93J0kk3/wcPh/IzZQe/upIk5Y2k3TbTJO8Z1nrjS3w+9a5HX6X9nx9InXEu7wgAMwAAMwAAMwAAMwAAMwAAMwAAMwAAMJDGAuM74QjqpwSZy3+Url8Nvd94W/vm5fwrrjqwrf/m7+K1Ftk/biazPdLiX2lHtqXZV++qZ9pzeY/t+tuWnofVy4wRns7eXnlXPrPZQG6i+acylPUtS23104aPwo00/tB99Trt2PPcrsrV1wbJwYeb8UPjkeGodhnovh96du0OxfyD1nHg9B8+dD62L7s0V6SmJLPHRufqphkjeq1+cDS2/v8siydOifSV8JFclRy0qeAzvuMLxkxViSW2h9ure8nJqlKvaVELr2hSIQL385v5w4Xd3Bsn4eD+n/a6I89Z5dwdJ77Rz0va7uJa81ue087S/cOKU9bVEniYrqO+zzo8eK3b3hL7971p0t/iTgNNPrjoXiyZgO5/aEFrmLzGRaNfPmG0yr2f7znwsl0pWzsUHHgsX7rizXIeWWXeFzlVPhatnv8z9PNFni3+WVNREgo7HngiKlI4fr+f33h2vW30lMKsJVDt3xuzQu3vvuEwUqaf+0WuKhULofvGlmqRtHsHrYldsdKxcm/gO1Xu4ben9of/QB4n9oqh28dn76h57n0hc1zoeo8+a9VmiXZI83p96R4of9WPW9RzjP1EwAAMwAAMwAAMwAAMwAAMwAAMwAAMwAAMwMDEMIK7HIHXGG9I0iYi4rn9wIK5vtN10FtcSkhJ+Eowdq9MjaSVVJF7a//BIKPb05hYXXr6EokRt6rugVAqXntpg97j44MpckdqpZV2/buIxj9gxIfvbuaHw0bGKuknaSGJJaqaJ7+j9JTollpTeWjJLKbJbF94bOlc9mSrCvE1b5y8NilyNltdsn+sRZRMhrjU5ouXOpcPRnjn7Sm1bHCgEcWaieURWRz9XE9cewRy9Jumzoost3XnK309xpihxjcGk623fjNmW8j4rZXrpytXQu+M1e640djT+xFz78hWZ52kigBjOHK/Xr9txlScxq/aouG+pFPrfOxyUTcHaeyQDQvt9jyRORFDEsaUyrzGlfMU9U9q4lnM0ScKeJUd6+qxyxY/eqRoDWedFjyl6WpNt1P7R/Xr/aAKDJhhJcOtYPeOxosyEttKkJE3CGHX/kXM18UFj7Vrr+C2vUK2OHL/x7xLagraAARiAARiAARiAARiAARiAARiAARiAARhAXCd80dksAwNx3fgBiri+0abTVVwr2rTt7j+EC7fPC1ozNW08K02thIWkip1Xg1zyyFmJuf73jwxL4BQp5FHSJsK6ulPrk1ZP3++CTpGlQxc7wqVnX0iVxxJpSdJeol11VjS20lBXk9cSVZKMEkpej2pbnatrLAK1id+veg6r621zLEI9T5SpnbNyrUXyV5PASe3k3GRFXDuX6r/Cic9yt7vu5+WXZfGM2Zbu2gVytTq7lNf1ktPdm7dbpLf2i2NNAvGyNG60jnzScyoqu3ze/CWWFl2pvPXT+/qbw3WSWL9tzjCHKZzofElkCc6s/mldvNyi0jPPWbDMuGy758HMtauVYl91b1183+h7rlhtY0d9c+Xz05bNQVkd1J/xe2utZqXUzzvWktqx2fbVI679/afIe01E8Gca6um193Q00jlJXKudNbEobbmH0tCQMRVvf//dI8O9z/z+vtUzSa7772xv/BuBtqAtYAAGYAAGYAAGYAAGYAAGYAAGYAAGYAAGJoMBxHXKF+aT0RnxeyKuG/9SQFzfaNPpKq4lzSSt+/a/YymrkyIsLSJ01VPDUunAwbqkhQSXp+NWxKCinONjWL8rfbHWula9Eo8PXktNux09f+DwhyZMPf23BL1FUdYg3KPl5flskeV1iutaZHeeuozHOUmirNp9XO5Wk8BJ5bhYThPXtl7y/CUm9OpJta6I667nXrBI5qtnzlpaZKVBV5S+ZHS1OuvZ2u9bEfrePZTKpCY8SDirvKT03J6m3+T3/CWJKeO1FrTXKa0t1H5ivn35w0Hryie1Z959PplFE1okQtOivP08SU9PKV04dsKEfTwjg453PLLGhLWfK5GvySH19F3eZ5nM8+oR1858XFwXPj1pYl/LGrhk1oQbseX7lOFBa8mLJeMgJStGPA14Wj31LtYYi/b/pfXPJ6bhFye9u9+qOHcy25573/i3C21BW8AADMAADMAADMAADMAADMAADMAADMDA9GYAcY24HpMQmGovCMT1jRfadBTXknUtsxcNpyAulSyas2fbjsrI4lLJjiuqMiqoamVZ0vjSs5ss/ffAB0eDBFdaGSa2EiKyLaL07j9Urcew/H7CpJgkTdp9Gr3fIpIR1xXtPV7i2kTe7IVBIq2RfVyLuJbQcwmbxpJHykomts5dbFHU0XOj9+t88rmKtvPzFHkrkZlWhs5zidy27MExi2tNwNC665nPViqFrg0vWsrxiskuSmm97llLaa3x6s+g9esVva16+j5Lf51wbvl4E/x7Q+8trfWcVifxrfTZUbnr56YJYT+etlX724SByPMrylnLKESzPtQzkSTpnmn1dImuKGy9+23pg8XLR0X0l4X5jNnGTVJbJN2XfTf+fUFb0BYwAAMwAAMwAAMwAAMwAAMwAAMwAAMwAAP1MoC4jnyRWm8jjtd19UZcf3Tho/CjTT8M/7n1Z+FY6yfhzjfmh3/Z8M/hh5t+ENZ/+FQYHLoa3jrzVvjJlh+Hf37un2yr37Oeo3OgMzx5ZF342dafWVm6TvdY8MaCcOpibO3KkTZ1Sbx035Jw8MuD4efb/tvup61+Vz0eObgi3LLxFivztztvC+d7z6fWY2BwIGw9vjX8cvsvwvee/66Vpe2MHbeGN794IwyVhlKv9WfzOuleal/t33N6j5X1sy0/DZK5fu54b0ulUti7d3/4+29+O/zDt/8xHPkwPa31eNRluolrySatcxuV0RIVEmSFT46X+1XCSZHSOrdCUNX5LpBU7tq01SL5stJ3e1Shb8tyRCmTfb3flOhpS7c7e+FwJGyd9VSq3Y6Va0eJxiy2XFwrEtLrXW1rUZM1yu6sOoznsd5db1REeFZ7Njve6FThpVK4vGefSWCtnxwVeY149qhIltBrRJlKgy3pnLTeet77eRktsxYOR8FGuNaYsjWyb501Sm7mrb8ia7Weu0Rt76492dL6+vWg94LYHeoYXm/Z76O62KQCrdM8sma8xlLbsgcS1032SGLPjODlNMtW/aMU5novJvHua9Qrml4R/NF6pwnh6Dl5PisqX1HV8fTf4y6uBwr23hd71eppz7p4eeXEhAij1a7nOP8xgwEYgAEYgAEYgAEYgAEYgAEYgAEYgAEYgIH6GEBcN/EXkWMV1z/YeEv4yYvDclqiWT/f2/DdsOLgw+HfXvhX+933/8fmfw+n2k8mfpkrKSxJ7efGt5LiEuKl66WK610Sq+z49f+19T/DvfvvLUtwL3P267OCBHV8QEto//rlX6XWQdfP3zMvdBey1xD2OjWDuG5vvxi++/0fha99/Rv2o8/aF3/28fp9OolrRVK6VCz2V/IjgaTI0MLJz8OV4ydtTWulDI5GT1ZrYwmcwsefJkbCDp5vsbWAJRwVfRlP3+1RfnlkSWI9RiJBJQolnKISfjjqO32taxdTUUley7O7uNY2sW4J7896rslbdqPPk5xSm1754xe5n08RqVobvXfnbrtGaazzRkg7C54eW9cpErhjxepRwrRRz5pXJNdyP5fOSeJa48HTO6dGXCt9/orVwxHXd90ThuJrv5dK1icau2qjwXNfWdSz81xtW+a9yoQQf+bCiVP2/ohPZJFgVervgaOfhIEPP7ZJBapP56onE6W1IslVhiYiZEZ3J4wbr8t4b52HtDGt/VpqIUm8N0pc97y8yyYKxJ/V7v27O4PqGD9Wy+9Z9RS7ed7FKsPHaS335tz6/jNCu9FuMAADMAADMAADMAADMAADMAADMAADMAADzgDiehK/QPZOSNuOVVxL5t62c0b47OJn4cj5IxaB7YLY97/xxRtlib3p2KZRXxbvOb27HN2siOQtn75oUdGSnnvP7A23v/rbYSH+/HfDrs9frbjeJbHE9qPvPWrX6R4eLe37v+z+0o7r93/f/G9W32ibSGRLaKvuOmfO67PDsdZjFh196Nx74Tcv/7ostO/ZtywMDg1W1CNaltepGcT1F2f+FL75re+UxbU+a1+0vuP5ebqIawkipezu3rw9WRaVSha1eeGOO8OFmfOG1w+uY4KAIjKVhrx3x2sVolJRu/0H30/tN5eVeWRJUn8Pnjtv4l1rvyaVIVleka64ge+0eiR0PdckPfdE7NPkhbisrHrfSDptRYxKYktu5inHWZAQUxS9IuAlRWuJsi4WColpnNPq7aJSEx8k49LOy7u/IlV4gnT2tPY20SLHGtdKGZ3n3kMXO3K1sdqyd8frllWhZfbC0L3llRBfnzp+v6tnv0x8dyhSW9kQWufdXZ7cIGZsneSEcda5+ilLO52Vijt+74n+3XnQOE26d5Y8zhLCSWXZPi3Z8M6h8rrfPgkoifmse6eWn9APWfWMi2tNNtBSD/EJT4hr/qNUC3OcCy8wAAMwAAMwAAMwAAMwAAMwAAMwAAMw0DgGENcJX3pOdcA8VbhE767Pd5W/nFZabu27ZeP3w6Fzh2y/oqQXvrnQ9i9+a1H5XLVBe197+MX2n9uxma/enhjNrHTfd+9dbOf8zyu/qTjHJbFSknsK8K6BS+XIaUVQ63fdS8c9dblSd0f7QIJckeKq+7J9Sy3FePS4oqxVPx1XlPkHX31QcX303Gb6PNkR183UFmOpiySSRSGnpNmWILn81gFLCS15rejKuu5XKoXuLS9blOjF+x8NkpDD0ZdPBUWZppXpsjJJOqddU94/It07HlkTlMK3rjLG8I5zCT0dUoUrglTpp6tF6+Y9Xo7qVar3W2flktfOgsS1ie40ZlP6TOsEt85fUl7DvcxJyvk67qKyUeJa6x9rEoXK09rPSQJSQl/rCLu81jWKVJf07X39TYtyz9tmeZ6xfI7Wr9++M1z43XxrI43P8rGMNko651pru01KaF2wLHd2Bo3PlvlLLEI8qcxm2Oc8jJe4VvR814bNN8bZitXDkwiUEv6Ls5n9kSquR/pV4zdPJHst4lp9on4TM1qL2/sIcd24/2h4m7KlTWEABmAABmAABmAABmAABmAABmAABmAABvIwgLiu8cvsPI062ee4uFZ6bn32+mw/sd3k7o9f/I9wtuvGF8gumGe99vtQuHZjTcuXT75sEc7xcrw830qCS4ZLLh84e6B8Py83Gt2saGil9JZk1tajo6PR5dHIb4l1F+NKb34yJZ2510Hlrjy0slwHr2Mzbid7jetmbJNG10niqnvTNouaVEpoyQlFXfe+8lpNUateL0U2K9W2IjAl4iSBJDAVZernxLcuK+uRzoXjp0xYS85LdtZThtdHa/cqxXFatKifF926uE6TXNFz/XM91/i147otFoOihSVa1Xfqw6T2VJ/qmLb11qc0NGSCNi7BO1c9FRQFrB99jh/P+r1zpeTanSaDtUa7MgDkqZ+LykaIa6WmLwvp2QvD1TM3/o7E66Kxp+wEGne6d/RH7at02mMRy/H7XS8WbWKJ1p6+dqE1V9uMKsP/PeBZGmbOr0jNn3r+yHXiKZpeWqLe1pVvGWN9vF4N2DoPaWNa+5NSwOvZs4RwtG2iWSB8rPXu3htKVwft3ZvGuSbIaFKE1r+OnqP1uBX5rp888jqrnuqj+LjX762x9awR1/wnKso0n+EBBmAABmAABmAABmAABmAABmAABmAABiaOAcR1A74IbjZg08S1IpkldpXyW2mivd5JgjkaiT1jx62h90pv+Xy/zrfRlNNPH11fPi+pXF2jyG7VIxrhHRXXus7L7ujvCD/f9t92flys+zna5j0veg2fJ+5FMxltLUErySzZoYhlpQuW0LJ9t84KiqS0dVyLxTJveeqptLeS4ZLVSnOsVOFZ12WKa907JepW13U8+oRFiKeVUcvav3peyUNFhOaV1/VI6HquyWq/8TjmMi0usHSvWsS1Ugxr7fOkOkrKKmV0NELU+zEqN3Wt1lKWKMuaAJF0jzz7XFSOVVzrOSQTTUDfNif07Xsn8bmtTqWSpUB35qLS2j7PmG3jsHDsRHoZOf82i2WtP9394ksWZR1t7zztk3SO3gta57ln2w4bn4VPT+aK1m+dv7RiUoI/fy3ryifVp5H7nIfxFNfR+vpY8/sNXe6ziSOaaODnaRxGx0SWePZrsrZZ1+te8XEfv7/KRlxP738fZPHDMfoeBmAABmAABmAABmAABmAABmAABmAABiaXAcR1zi/HpxKojRDXEtUS1hLMtfxEpXMjxHU0hXhUdMf7Q5HiEtuqq0S3RHb8HH6f3JfNRLW/xMilpzdaZLWiPU2wReSwhKKElCKvJdEU/ao1shU9Wov0UkpcRXdKBGU9m8vKuCyxdMqL7k2NnFW0qlIsq+y0MiS9JUd1PKsO9R6ztNC3zgounfKU4+I6mnY3z3UTeY7LNInGaGSnPivas2XWXaH//SPh0rMvjDru53sEtDjK2z7ej1FJ58/dtXFLTdG9fl21rYtKsS4ZV+38xONK1bxtx3DU662zrE1Sx8pIWmePkFV7ap12m6BRLAalO/fJI7VEjifWK5IKveOxtVUjuBUJr5+0srTf1y2/MHN+6H9vZB3onOMsSYBm3WsyjjkPacxq/1gjrqPP5WMt7X62JvqK1aF9+Yqg9a91bZZ4jpad9jnrevVR/F2c1G+I65vj3wtpDLGf/ocBGIABGIABGIABGIABGIABGIABGICByWMAcY24DkmCORpFPZni2iW86hCV4kkvDY/kjkeUJ53Lvsl76YxX20tYd2/ePpwO3Ne47R9IlVQSvpJqJtg8lfGM2RaRLJHRu3N3ZmTywOEPQ9s9Dw6vVSy5XChY1KeLTd96euioJI2ujyzx6YLa20bPcuWzP5ajsV14xoWLnz9eW8kbCc961rjWteNVr7GW6zItqT0l9jxVuNahVpR+z0uvjnoWrWveOnfx8DrPkejRrLp5PyaJa63/a2und/eMuldWmdWOuagci7hWWnJJZpXRuWZ9piDWc7T8/q7hc1c9lTgZRO2qsaPyWu5cGrSedLXnSDvuz9e14cXEe/l1umfHitWZ9dc57fetCK2L7rWI60vrn68o8+rZL22iiJcZ3yYJ0Pg5k/27t1eaSJ5oca0JQEo/38HRzk8AACAASURBVPnkc2UGssRznvbLul59FB33pStXg1KRx8ekyojvy3Nvzpl+/7agT+lTGIABGIABGIABGIABGIABGIABGIABGJhYBhDXiOuq4lprUUtk5/lRym8fxElCXMdcMEcjqNNShSOuJ/aF4H03lbaSXp1rnzHhLNEkada29P7USFkXyr5VpJ/WVZWsVPS1ybTfD0fcRtPZRtvEogQfeyJ0Pbe5zLuOa21XrQMcTf/tsjIqS6Jl5fmcVcaV02eCRHfVckoliz636Nec7z3JG4l9RR97+YpYt1TjKbJW4kvtqJTqfk2zbfOKa9XbUsI/t9nSeUefo3fH68aaRG10f9Zn78dEITayrrK4TI1mztlv0Tq4qKxXXPcf+qC8trbGiuRutPz4Z2Pm1lkmfgufHE89VxH5qpN+otH5EpldGzbnHr82+eS2OVUnV3jabt0vSb4X+wdMaCr9v1KDK+o4Lnddfg8c/STxuRDXo/9e+ViLt6VzIz6VGePy3rfLbZomnrVmuMrza9O28eslpzXRSPeKi2sfk1qLPPreVhltyx4Mxb7xyWaRVnf2j2aINqFNYAAGYAAGYAAGYAAGYAAGYAAGYAAGYODmYgBxXYcIaPZB4rL3R5t+GPTZ61vLGtfRVOES14NDg+VyvLxq20aI63pShf/65V+FroFLNde32vNwvLlejhJqHY89YSmMFRUr6eCSRNIh3l9xmeHHJVQks0yslEph8M/ngmSwH0/ammyZddfwGtlV3iEuRsZLXPtzKYrbZXzSVlGFktCtC+/NJX/03CaK4qJyJG106/wloW//OyEu9026pkjtpLZUv/W+uscmHqg/hzrGf+w6J9EoeG8zTxWuPvb6Xn7rQIVY05rUEqGd656tkF1+ftrWWUgU1yPtrehTpbpvlLzWc0jCivGkcZFWV+0vnDhVjp5WvZRGO+t8HRPnulfLnEVBUelp5xdOfGbZEZLqlTQBJLWckedLE6Np10X3S1qr/y/v2Wf96W2WVKZkvCbH9O7eO6rvp5K4TsuioP0TmSpcEwWUuSDKir/T4pK68NGxqkszqF/t+rmLQ++uN0L7/Y9aRHXh+Cnrr7i4Lkd8r1lfwWpaHaLc8Lm5/k1Af9AfMAADMAADMAADMAADMAADMAADMAADMDA9GEBcV5FOUxH0Rojr0vVSWPjmwvKa0W19bRVf6uZpl0aIa61VrTWrlSpca1hrLeuke+c9L+naydpXKpXC3r37w99/89vhH779j+HIh0cTn22y6jcV7+tCMknQpYmICnGd8j5QlPHgV+dN+CraWGmOJS4lMKu1k8vK8RbXcckTr5e3TTwtefy8pN9d3LpM1VaiT9Kx84mnLSo56bo8+yy6deZ8K0vlJaXlzlNOLed4WyT1iaSlpwr3MiXVlGZaQlX7enftCS2zF9m66H5Onq2zkCauVUb/wfctWlkp5iVU85SbdY5L2CRBnHWdIvOVxlvXWTrvHNJa5alN7ZpZCzNT7UsAX7h9eJ35pPGaVbfoMX++JMkcPS/ts6KoFeFtWQRGxn9Wmcb+I2sS5a6ePatvR9VhJAuCxK1NKlmwLAx8ML5/B7KeTfVTO06UuPYJIJLX0bZJe1dLRGf1s/qyb/+7lnpcqe2ViSOaht7HX3Tcq99bZi0c9d5RHVrmL8l+x09C/0Xbic/T4z9i9CP9CAMwAAMwAAMwAAMwAAMwAAMwAAMwAAOVDCCuU0TVVAalEeJaz//yyZfDv2z4Z/vZfmJbxRfLedqnEeJaAv3uvYtNXP/bC/8aTrafTKzHoXOHwi0bv2/nPXJwReI5eeo8kee0t18M3/3+j8LXvv4N+9Fn7ZvIOky3e7mQTBJhaTIkj7hWVLEER8fq9SaYJOYkFqOpZdPaMkmWpJ2btj+rjLTnipflbZMlfvwaCdreHa+VWdQ9JNb0/FrLW+dJCElopsmdK3/8ws7XWuJebtI2KjBrlatJ5eXZ520RFVh+ncReXFyrnxVd3bNth0WG6pm7t7ycq/+9XG29HzPlpiLQd++1NaVbFy+vEKrRsvJ+dlFZS9sqsroeaa06aa1i3Uvp95WeOa2eSrVu5906yyJj086rtt+fLw/X1cry49XK1OQCS6F/8HDF89UqrgeOfBRaF99nGR5KQ0Nh4PBRW+YgGn3sdWrUttqzqQ56jmstoyer5X3XROvqY21U/5RKQeuSK5LflleI/Fss7T5amiGaVl73USp/TXaxVPAzZlsUf/fm7eVJJtG6aPwpM0Xh40/L/WYTRX47N/S+/mboP3SknOmgcPxk5nrmKncy+i/6PHyu/A8N7UF7wAAMwAAMwAAMwAAMwAAMwAAMwAAMwMD0YABxHfmydLpA3Shx3d7XHn6x/ecmg3+65SfhWGvyup5qt86BzvDM0adt6+3YCHGtsvae2Ru+t+G7Vo9l+5aGwaGr5S+ddby70B1mvnq7Hf/BxlvCB199UHHc69Ns2y/O/Cl881vfKYtrfda+ZqvnVKqPSxLJIE/97FvtuzBzftBapr5PW6XGlUAbJVZS3g0u3PJGBrusTJKkeds2q4w0yRMv29smz3MqKlvrAHsZukdSFKZSfOsnKvB1ra+DrMhktbmkUDyluJetaPbohIC4mPLzGrn1tqjok1LJZJfqqlTQYkPp1bVu+tWzX1p0tSSb1k9XxL0/Yy318n5ME9daq1yp6tWeihy9MHOeCVJFtavOtdzLz3VRmVdc67ls3feRSOta1kTXPSWrJa11v7Q1saNiPIkrr3uerT9fHq7zlKdzqpWpFPoaH/E+qVVcS/LHMyBIzsb35a13nvOufHbaGNYz5jk/ek7ed030GmWqUER5vH/6Dhy0yRFXPj89qh6KrFbEtN4FamP9aPmG1kXLLQV9fO10nSfmNLlEYyh6/4rPpVLFe0jSW8sTePYMtbvuYWuY69yUvwG+fzL6z+/Ndnr8J4x+pB9hAAZgAAZgAAZgAAZgAAZgAAZgAAZgYDQDiOsqX0xORWgaJa717Ls+fzV87/lhaXzLxlvCfQfus6jn1sut4cvuL8P2E9vCzFdnWlT2z7b8NGi/t1mjxPXA4ECY/fosE9OKAJ/z+uxwrPWY3evQuffCb17+tR1TOvF79i2raz1ur/NEbom4Hv1CGmv7S3AoWlaCJV5WmnSRUKlFXNd6vsvKCkla43snq4y054o/v7dNXCCNOq/3sonZ7hdfKreh7pFXMEq8SeypXEnpiw+uNPkqiR2/V/R3RT62zF1skji6fzw+e1vYGtePrDFmFEErDi78br7JdkVfVsj2UsnWnpYgk3Srp17ejxXiulSyqGpF8CsduSS5l611oMWz6qX6ab1eiWGV4+fEt8oMoPr5j/XdSEpuTdrw/dpqzWDJOy/D6jcykUMTDtQnaqusn9KVyolE0TJUb8l+SXgxoR9Fk5efqRGp5huwxrU/v2+riWs/L76dCuI6Xudafs/7rlGZEsgSyUrD3fHImtC27MHhNdJLJVtLXBOGrl248e+FaD3EiSaH+Jg0/kfGwMX7Hw1DHZVLNIi5gQ8/rphAEy0v7bP3s57Lz5G8Fvta675atgjEdeP/hns/sKVtYQAGYAAGYAAGYAAGYAAGYAAGYAAGYODmZQBxXaNAmgqDpZHiWs/71pm3wr++8KOyHJYgTvr5z60/C9G1sBslrlWH873nw69f/lXifb0u8/fMs+jrqdBHqiNrXDf+xetCMioinIc06VKriJaYtTTIRz4qyw6/R9LWRN69D1n63aTjiq4tDQ5mlpVVRtpzxe/lbZMlriWaFUkqUaSoRy9D98grriWrotGcHoGbJe5dcCsVdzR62+/fiO3gua9C787dJtFMnI6IakVXd656siyEVXcdjz6D7i+hpXWtWxfda5HQl/fsq7mu3o8mrnt6LQq17e4/DEfAHj+VWJ4LwLjEU7pyrT0ebxv1VVn0SfZl/FQI9OvXg9K7t9yxIPOaeHlJPEksetR2/Pzy70o9/+gTdUWuR5/Z5WNSPaLn1fK53jJrFdeFE6dC+30ryqnC+98/EpQefjxThdfSDvFz9e7T2NC7JH6s/HupFPrfO2wcKd28R+xrQkX78octVXff/ncqJ4VMwr/DPLNAUlYATepQxLfGgvqk/Gyxek61/kt7DvY3/t8itCltCgMwAAMwAAMwAAMwAAMwAAMwAAMwAAP1M4C4jn0ROR1garS4Vpv0FHrC+g+fCr/c/otyBLain/9j87+HBW8ssHTehWvDa996GzZSXKtMRV5vPb61og6KBp+x49bw5hdvhKHSUOoXzF4ntvW/LKZC27mclbyL1zdN8NYirl085pW4qoNfkyhui0VbK1mpapU+OV5n/z2rDJPKCSnQo+nQ7fPKtcORxLF1ef0eirxVSmqJRcncq1+cLdfH7vG7O0fJXL/Wt17PaLpvE0T3PmTRu35exbZUsrWjde/S4I3o34pzGvCeVnSnZK8EsOSgUoIPdVZGbuqeSeK6/9AHoXXhvUER0KqjtdNtc3JFZUafQ5GkrfOX2CQASTFxZPK5WCy3dfT86GcTf/c/apMmbH3tlGvUV2U5nCGtdU5cXLuwzXu9zksVxsViULspSvzCHXeW69Qy6y4T1oUUUR995jyfvc6p9aiDnXrLrFVc6/kkRltmLzQuNYlBqbzzPPd4n6OxrDT5Nllj3t2WDcHGjtak7upOraOktUnfiLT2ulok9bIHgp5T7wiLaE7h2K+JbxXhr/d8PNI/fl7W78We3nDx4VVWD9Vp1Lmlkr2Xxbf65uqZG+/C+LnN2n/xevL79P63D/1L/8IADMAADMAADMAADMAADMAADMAADEwnBhDXdXypPZ0A4Fl4oU0nBhSp2DJnURivNa5djCudtCSm2k6RvIoyHiWK16y3fUoBLflhaalH9vm5knoeSavoxDR57UI4SX6nCfl4v3rdswSf1pFVtKFHSXoZkjOKMr/09Mag9WWj6aajn7s3bzdppbWZC8dOjBZC8fet0ga/dSBcemZTKPYPVD8/fn2Nv2vtWj2jP1fStkJcl0qW2lprXUfTE0te61mt7yTCFyyzvpZcTirT90lKalKASePlK6qmIvbrottioTDp0arR+kzkZ02C0HroGisXH3rc2lxrjmcK9BoZ0fPkEdfFvn5jQFkCNAYu733bRGh8MsBEts943EvZELq3vGLjWrz3bN+ZybgyJmhMp75nisWgiOtouniJbq2DrX1JP1pCoPyevGOBTXTJXMs6rc9LJVu/WvzoXZpVhkdkN5qt8egjyuTfcTAAAzAAAzAAAzAAAzAAAzAAAzAAAzAAA9OJAcR12hec7M/+cpr2oX2akAEXTpK5eV/UEiy55YRE5qt7LIK0nEK2VArF7p4xpzzOqm+WuJY403qsEi1ZZUhca11Ziees85KOqWzJW5dHaq+0HwkoRTOPV8rvpPo1cl9ZXB87Ebo2vBh6d7yeKooLH39qUdxaxztvemelHNf64eMZXd7I9mjGsjTJwWTqzHnGoZjL2/55nsffI6ny1d99pZJNhFAEsY8HTe7Ic48pdY4ikF/YZqK+YdyWSrbGde+evaFz7TOWWj4urT0S3dv2wu3zQuHoJ3W1r9aO13uybdkDIW+0v000mb+kaqaJKdWXzi7bujiir/kSAAZgAAZgAAZgAAZgAAZgAAZgAAZgAAbGnwHENV/e8eUdDEwbBiQaTM4qDXHOfpXIlfzNir7LW9Z4nSdx3bFybZDkid9DKb7j+/i9/j+eipqWrC6nMq7GUbGIhK7WRuN0XJMAFOE8+OdzDR0DhU9PWhaAvO8EWxv+8XX2HtFnxl/946/RbacsFspwoclM11rba+sbRWh/+LEt99DoelFe8zBCX9AXMAADMAADMAADMAADMAADMAADMAADMNBcDCCux+kLdUBvLtDpD/oDBmAABmAABmAABmAABmAABmAABmAABmAABmAABmAABmAABmAABpqXAcQ14rq2CCTai/aCARiAARiAARiAARiAARiAARiAARiAARiAARiAARiAARiAARiAARhoMAOI6wY3KLM0mneWBn1D38AADMAADMAADMAADMAADMAADMAADMAADMAADMAADMAADMAADMBAczKAuEZcMxsEBmAABmAABmAABmAABmAABmAABmAABmAABmAABmAABmAABmAABmAABiaVAcQ1AE4qgMxoac4ZLfQL/QIDMAADMAADMAADMAADMAADMAADMAADMAADMAADMAADMAADMDCRDCCuEdeIaxiAARiAARiAARiAARiAARiAARiAARiAARiAARiAARiAARiAARiAARiYVAYQ1wA4qQBO5CwN7sWsIBiAARiAARiAARiAARiAARiAARiAARiAARiAARiAARiAARiAARhoTgYQ14hrxDUMwAAMwAAMwAAMwAAMwAAMwAAMwAAMwAAMwAAMwAAMwAAMwAAMwAAMTCoDiGsAnFQAmdHSnDNa6Bf6BQZgAAZgAAZgAAZgAAZgAAZgAAZgAAZgAAZgAAZgAAZgAAZgYCIZQFwjrhHXMAADMAADMAADMAADMAADMAADMAADMAADMAADMAADMAADMAADMAADMDCpDDSVuC4UCuHSpa7Q3d0dhoaGJrVhJnL2APditgoMwAAMwAAMwAAMwAAMwAAMwAAMwAAMwAAMwAAMwAAMwAAMwAAMwMDNzEBTiestW7eHr339G+Wff/nej8LOV19DYjO7g0kMMAADMAADMAADMAADMAADMAADMAADMAADMAADMAADMAADMAADMAAD05iBphbXkth/8Zd/Fba/9AoQTmMIb+aZIzw7M6dgAAZgAAZgAAZgAAZgAAZgAAZgAAZgAAZgAAZgAAZgAAZgAAZg4HpoKnHtHaI04UePfhz++V9+YNHXv/r1jNDX14e8Rl7DAAzAAAzAAAzAAAzAAAzAAAzAAAzAAAzAAAzAAAzAAAzAAAzAAAzAwDRkoCnFtQvsp595zsT1d7//o9DR2QmA0xBA72u2zCSCARiAARiAARiAARiAARiAARiAARiAARiAARiAARiAARiAARiAgZuXgaYW13v3HTBx/c1vfSd8ceZPiGvENQzAAAzAAAzAAAzAAAzAAAzAAAzAAAzAAAzAAAzAAAzAAAzAAAzAAAxMQwaaWlwfPnwEcT0NoWOmzM07U4a+p+9hAAZgAAZgAAZgAAZgAAZgAAZgAAZgAAZgAAZgAAZgAAZgAAaSGEBcI4aZkQIDMAADMAADMAADMAADMAADMAADMAADMAADMAADMAADMAADMAADMAADk8oA4hoAJxXApNkU7GOWDQzAAAzAAAzAAAzAAAzAAAzAAAzAAAzAAAzAAAzAAAzAAAzAAAzcXAwgrhHXiGsYgAEYgAEYgAEYgAEYgAEYgAEYgAEYgAEYgAEYgAEYgAEYgAEYgAEYmFQGpoS4/r/+778NH39ybFIbihkdN9eMDvqb/oYBGIABGIABGIABGIABGIABGIABGIABGIABGIABGIABGIABGICBiWOgqcX1iZOnwt/+r/8dvvb1b4Sly+4LQ0NDyGtmesAADMAADMAADMAADMAADMAADMAADMAADMAADMAADMAADMAADMAADMDANGOgqcV1oVAIs+feaeJa8vqX/+d/wrvvvhc6OjtDd3c3InuawciMlYmbsUJb09YwAAMwAAMwAAMwAAMwAAMwAAMwAAMwAAMwAAMwAAMwAAMwAAPNxEBTi2s1VFdXd3jo4UfDX//N35UFtiT2N7/1nfDFmT8xkwJ5DQMwAAMwAAMwAAMwAAMwAAMwAAMwAAMwAAMwAAMwAAMwAAMwAAMwAANTnIGmF9cXLrSE/5kxM/zFX/4V4nqKw9ZMMzaoCzOIYAAGYAAGYAAGYAAGYAAGYAAGYAAGYAAGYAAGYAAGYAAGYAAGYKB5GGhqcd3f3x9+c+vtJqwlrh959PHQ2tYWisUiMyaQ2DAAAzAAAzAAAzAAAzAAAzAAAzAAAzAAAzAAAzAAAzAAAzAAAzAAAzAwTRhoanF94uSp8Lf/63+buJa0HhoaArxpAh6zV5pn9gp9QV/AAAzAAAzAAAzAAAzAAAzAAAzAAAzAAAzAAAzAAAzAAAzAAAxMNgNNLa4PHz5i0lryWhJ7shuL+zNgYQAGYAAGYAAGYAAGYAAGYAAGYAAGYAAGYAAGYAAGYAAGYAAGYAAGYKDxDEwJcf3Nb30nfHHmT4hroq1hAAZgAAZgAAZgAAZgAAZgAAZgAAZgAAZgAAZgAAZgAAZgAAZgAAZgYBoygLiehp3KDI/Gz/CgTWlTGIABGIABGIABGIABGIABGIABGIABGIABGIABGIABGIABGIABGBg/BhDXiGtmpMAADMAADMAADMAADMAADMAADMAADMAADMAADMAADMAADMAADMAADMDApDKAuAbASQWQWSnjNyuFtqVtYQAGYAAGYAAGYAAGYAAGYAAGYAAGYAAGYAAGYAAGYAAGYAAGpgoDTS2uX9+9J3zt698IrHHNgJoqA4p6wioMwAAMwAAMwAAMwAAMwAAMwAAMwAAMwAAMwAAMwAAMwAAMwAAM1M5AU4vrVaufMHF9yw/+PVy61EVkMNHhMAADMAADMAADMAADMAADMAADMAADMAADMAADMAADMAADMAADMAADMDANGWgqcV0oFExQt7dfDDtffc0irRVxPfOO2UHHmJlQ+8wE2ow2gwEYgAEYgAEYgAEYgAEYgAEYgAEYgAEYgAEYgAEYgAEYgAEYgAEYaHYGmkpcb9m63SKsJav956//5u/CwfcOIa2n4ayJZh8c1I8XOAzAAAzAAAzAAAzAAAzAAAzAAAzAAAzAAAzAAAzAAAzAAAzAAAxMDANNK67/3//vn8Kddy0Of/zj6VAqlRDXiGsYgAEYgAEYgAEYgAEYgAEYgAEYgAEYgAEYgAEYgAEYgAEYgAEYgAEYmKYMNJW4ZrbCxMxWoJ1pZxiAARiAARiAARiAARiAARiAARiAARiAARiAARiAARiAARiAARiAgWZiAHE9TWckNBNk1IWXHgzAAAzAAAzAAAzAAAzAAAzAAAzAAAzAAAzAAAzAAAzAAAzAAAzAQBYDiGvENekUYAAGYAAGYAAGYAAGYAAGYAAGYAAGYAAGYAAGYAAGYAAGYAAGYAAGYGBSGUBcA+CkApg1q4JjzLqBARiAARiAARiAARiAARiAARiAARiAARiAARiAARiAARiAARiAgZuDAcQ14hpxDQMwAAMwAAMwAAMwAAMwAAMwAAMwAAMwAAMwAAMwAAMwAAMwAAMwAAOTygDiGgAnFUBmyNwcM2ToZ/oZBmAABmAABmAABmAABmAABmAABmAABmAABmAABmAABmAABmAgiwHENeIacQ0DMAADMAADMAADMAADMAADMAADMAADMAADMAADMAADMAADMAADMAADk8oA4hoAJxXArFkVHGPWDQzAAAzAAAzAAAzAAAzAAAzAAAzAAAzAAAzAAAzAAAzAAAzAAAzcHAwgrhHXiGsYgAEYgAEYgAEYgAEYgAEYgAEYgAEYgAEYgAEYgAEYgAEYgAEYgAEYmFQGENcAOKkAMkPm5pghQz/TzzAAAzAAAzAAAzAAAzAAAzAAAzAAAzAAAzAAAzAAAzAAAzAAA1kMIK4R14hrGIABGIABGIABGIABGIABGIABGIABGIABGIABGIABGIABGIABGIABGJhUBppWXA/++Vzo2rQ1DF3uS22gwfMt4eJDj4erf/pz6jlZ1r6eY1c+Ox06VqwOV06fCddLpfrvWyqFS8++EPr2vxOuF4vp5ZRKoWf7znF7Rj3HxQceC/2HPsiuRwMGas+2HaH/vcNja7c89SiVwrULraE0eK2iXdV3nSvXhatnv6zYXw8Hk3FN7+tvhst79qW2X+natTDU09uwZxvqvBQ616wfN/Ymow2r3bN78/YgTotXrjSsHe2ejPfGtmf0PdBs432kPt0vvhRa77onFE6cqvvZC8dPhq7ntzSex2j78bnu/qn2PuE4M0dhAAZgAAZgAAZgAAZgAAZgAAZgAAZgAAZgAAZgoDYGmlZcX35zfzh/66zQtuyBMNR7OfGLZTtnxuzQufaZUOwfSDyn0UB4vTpWrh3TPYt9/aFt2YPhwm/nhst7306tu0Rk291/COdnzA7dW19JPW8sz9l34KDV4+L9j4Zif/+43EMStHXBMnsOiZhMWV+vSCkWQ+HYidC29H57nr5971Q8S++uN4wpyaShix0Vx8bSfnVdWyyGnld2mRjOw+7QpS6TYOJADCbdU33XvnxFuPjw42Hwq/OJ5yRdl7ZvqKMztM67O7TMXhgKx+uXb2nlN2J/39vvha7nXmiI2LP2u/chY1TvnWstbWNuQ39GxnvG5JwpPN7FzLWW1iAOLz2zKbQtGX736G+X/7TcudTOcRbybjURpeOxJ6yc9vtWhGJ3T34eNakqa0JUvW3Odfn7gLairWAABmAABmAABmAABmAABmAABmAABmAABmAABmCgZgaaU1yXSqFz1VOhde7ioKjqpC/6FRHZfv+jJnVr+kI/JySK1pWMqJCKOeqVVNekfXqulrmLLbozK3K7cOrzcOF3d4aW+UssijiprLHukyBRZG3LrIXjFl0rOS/pqvs0MppV/XT1zNlw6dlNJlgliy7MnGfyWhHtEr5qn9KVqxZZfmHm/FD45HgiU2ntqMkD3S9sCx1r1jfsR+yqPWxyxj0PhqGOS+l1KpVC14YX7fkGjnyUGnHt4lUTIoqxyGub/FFjhgAX1+qztLYZ6/6+dw7V3aadq9eHljmLrA0vPb0xlIaGxlTPwqcng/jQRJE875Shru5wrf1irnsy3mubUZXG1USM9+i99a7qf/9IULYDTZDqXPfs8N+dZQ/aO1l/ozT56OKDK4MmABU+OhY0bjQWo+XU81nvKfGoyShpk7cSyy2VQu/uvaF10b11CfPEMnP+hQQEmQAAIABJREFU3eTaxnBOO9KOMAADMAADMAADMAADMAADMAADMAADMAADMAADNysDTSmuJYNa5y8xSZAmdSWZWu5YYHI5qfMkOPrf/3BUumidK8ElkZolIl0sSkgUBwomISSqFK0reZFWr6S6JO3rP/h+aP/DI1UFh0UJz5gdenftqUuESHznEcVKzd6747UgiZ1UX7Wn5KDkjT4nnZO2TxJQMlAR19VEn8qWJFZ90spTaviujVtMRKs/Oh5ZE1oX3xdaFy8fnuiQIGh1jcS8JGzaM6bdT/v1DCbBE8qOXzdw+MNw/rY5JrjytH38+vjvktWK2rzy+elymxSOfhKutbWXf7c6KuL63odC5+PrKvbr2dVOEmvxsrN+t3E4d/G4Rfrr3upvReNrYkFWXdKO6Vnblj4w9hTpI5MDsiLao3VQlK3aVBNK8ixVwHhP/kdGs473aF9nffbJInmyYdTy3rFy73vE3iP6G5T1t2rUsRWrTaZrUky90d5Zz8yxZJZpF9oFBmAABmAABmAABmAABmAABmAABmAABmAABmAABsbOQFOKa0meC7+bHySnEztZkc/rng0tv78rdK56MvFLfRfP+lI/SbSaMEtJQa579h88HC7cPi9YhOtItJkJxDsWpNerSlTawAdHy2t2K71xNPJXEXW9u9+qiPD2KGEJMo8cTmyPjPtK7CnVs7ajBMea9UFRq2nHoucr/balvlXU9BNPJ7ZpWt0k3SUEJVWjZSZ99n5TlPnA0U+S+z/heSWOVH5apKMmAKhMify0eppE2/rKmKIUVYZEuqIwo+yk3bPafglSpa2Or5Nr+5c+ECwd+ohMd4mm/vRyTdjPX2L1URaDWjjyaP88Us7vN9FbPWtWv6s+GstiNok336e1z8WHIly1DIDvT9pqzCiFuo0HycEUec14n/7j3cdc5hgplULf/neHJ9acy5fCv2f7Tvv7o8jpsU6Smugxyf3G/g8z2pA2hAEYgAEYgAEYgAEYgAEYgAEYgAEYgAEYgAEYuFkZaDpxrag0respgZkWrSqhJlnUs21H6N3x+qgv9iWBlV5VYltpXutZ69PEdUx0dj75XGa9lJ5ZkcDxNM0Ol65XlLier3XhvZYO3cWYi+Ho2tlXvzhrz2DPmCBrJfYtEjtjLVOJPUk2pa/1ekS3lo729nkWvVwsDEeWR4+P9fPgufOWEl3PmTSBIFq++lvRhYpWrvZc0ev0OUtcq1zxZAJ/1VOpUlIptiXYNVFAYjh+jzy/e7ppi9S/cqWuMvw+ajtJ2TQBLmktQa5xILnlEs3EdbEYLr91wHiTsI5HZ/s9srZjEddqP9X9yvGUyScJPGfVJe1YHnEt7vT8WVHdNrnCuWtU3Rjvmfw383gfPPeVTY7y93PaVmNL7xVlfEg7p6PGCGhNUrF31dpnaltnXYL8nUPjtqRE2hhkP/+AhgEYgAEYgAEYgAEYgAEYgAEYgAEYgAEYgAEYgAEYaBQDTSeutRasRKtSeeshBw4fDRK+vuasR7QqIk2S+9IzmyqiUU1aS1L+/q6K/bU2WFxce5rwLEGhVNiKwmxf/nCivJZcTZPIdr+Z80Pfu4fKIr5r41aLuut49IlRUsQjRCVa1RZpz6fU2Gn31DWqU7VI5LSyq+13MZVrjdZSyQSsnieP5I7fO0tcW1r539+VKoCtrJEofongrk1by7zF75P1u7PZiGjr3j17h8fBm/tt0oFEsBhRum//ufzGPpvAoftpbV0X15oEoQkQSu0en7CQJW/jz1Y48ZllPpCATpVyCet+RyOSNQ7HU17nEdfx54r/fq213VIq513bOn592u+M94w/1FNgvA9d7Ki6trSPOfV1Gge17Nc419rUmqykzCN6H1584LFc48+zVUh6X/njFw2pTy1159wM3hs0GYY2po1hAAZgAAZgAAZgAAZgAAZgAAZgAAZgAAZgAAamOwNNJ671hb2+rNdaykOX+4ZTdv92bvCUqYoyja6zbFGpy1cEbSWtFd3WCFkWF9dat1hiKynVsqK6FUmdlYZaIFUTWVHBrHV/JcK7t7xcFtlRGF2YWHRwbK3j6HlZ9/RIZEWAZ66/WiqFy3v2hUtPbagaNV2+94iYUrvkEZeSsRKwuSR3ggTQc3rKaEUdStpahPeIkLb05inrd6vONmFiwbLUNdPLz5Vwbz+myGg9g9JNX35zf12R/l5W39vvWeS5xkLr3MWWflyTNDShQymotf60eNfvilAXg86ExkCaoFbKdF+z3e+VttUY0EQMbdPOGet+9VFpcLDu8scsrn1t69vmjKnvk9oha+ypTRnvU2O869147UJr4nj2Mae+HsVAjRHQ+hvWtuR+E9bKoFDr+PMMCfr7qHf7qPpkvLs4l3/swgAMwAAMwAAMwAAMwAAMwAAMwAAMwAAMwAAMwAAMNAMDTSWuXdZKlmkNa0mtqOCRPOjevH3Ul/KSnq3zl1r0qWTQlc9Pj/lLe93XI5E9fbnKluCMd5zObZm1MGg94fix6O+1iCyd23bPg6kRfy5MXNZG7xP97PdU+lnJ3IrI2ZVrTbJWi6hVxJ8EqvolbzS09cld91jEvEUAP7ImNV21pcb9/V0W9ZonRbfaO75msSLhFWl48aHHw4WZ86y+kv5XTp+xNaJNPI2IGwlfE70RuSOhqzpH266WzypT/aV10SWu1V4qs5YyoudKPPW//2HFmufR4/5ZEym6X3zJznMmLFV4gqQSxxo/Qz29ueqldh5vcW1p/7UGu9KZt1/MVS9/dm3HKq4Lx0/ZONe65DbRIaHd/H46buI/Z/v52ItHvas8tW1UXDPe0/9BMNnj3ceVJglVvD/XrDduU1OFj7xfNfFEUto5Strqb5beXYN/Plc+z5dx0PMnXRPf5+JaLMWP8Xs6X7QNbQMDMAADMAADMAADMAADMAADMAADMAADMAADMAADzcNAU4lrrTOrKGOLNB758j0qeJT+NCmSTOuRas1rWxt591uJEcq1Qqf7urjWWtOSr5LpSesNZwmq6H2zzos+pySrIu8kdKPXRz+7TMkrriXP4qlvFd2uttaEgWjZY/3cf+iDoPWiXdZIRrfcudSEclzCSNhI4NWS2l0CMbpmsUSsouHjbSFRq+jDuJBWW9g95y+xyQaK+FWdFeVY17N72uPb5gSld1c9vC6loSGLVq9njWmlp/cU+aPqpWjOfe+U21jHnYk0ca3jFx9eFcTzqPIShK2ixjWmkpjPc32ec1y2XXp2U13tr2cVa8W+/lzPFK2TJhsowl/PqDXJ41Iy/runYtaYiQrGaJnRz4z3eaOi9afiePdx5WM62sd+LEkW+3tGE0ui18Q/K7OIMizE/7b52Gi/75GqbIrViw8/biwn1SV+T35vnn+E0Rf0BQzAAAzAAAzAAAzAAAzAAAzAAAzAAAzAAAzAAAzcYKBpxLUiRyWH+w8dMennX75Hhe6ojlMK671vW5puRRP3bNthEa+SUBb9nCEiJQm0tm2arCyL65Ofh0vrn7fUz9qXJCG0jnQeeZZHZCnqVBIvLlvjz+7CJEmmRM9Nu6dFCC+930Srn6/o5IGjnySmxPVzqm0lgBU9W4xFpVr04Mz5FiHrZdja07MXWqR04eTnmXLHr0naqhxFOcfbQsK15+Vdo/o4r1BKulfSvnLU7pr1JppVj2hd1BZak7z3lddqaltjcOY8S38fl6hKB6605BLwHumv9OCKjtckDq15bZMVNGFh5EdjRZMxNM6SUt7Hn03s+OSN+LFG/e5yLmvt+FHPHllXW5kWopHLuevlKcKV3eHxdbnY87r2vv7mKKaS7ps29nSuv9cY7zf+GCW1YdK+iR7vWe9aP6a+jte1/J5JOBY/N+l3502sJB2P7/Pzk+oSP5ffa+eONqPNYAAGYAAGYAAGYAAGYAAGYAAGYAAGYAAGYAAGYGD8GWgOcV0qhe4tr5h4VvSZpJ9/+e6CRxIgCoQiWCXv2pY9UBZ3Ol74+NPh6OtbZ9nawJ1PbTC5LZGnCFwvw6TC/CWhdfHyxGg2RblJ2vXu2Ru6Nmy2NMKFE58FWw/6ytVyOVovWFGbtq5wpHy/T3SbR2QpilaR0KqrpGs0xXW0LBcm1e7b9dxma494VLXW7G6Zvagi+lZtrdTQan+J7ej98ny+/NaB4fTYxeKoay36ec36cgSmBLfaV5LVxWueeySdoyhn1fvCHXdaOnQxpPOunv2ynP5ZUdWeCnqsQilaB48m97W5vV+i4lrna6KE0ptLGueJ1tU13h9J4sqfIR6pLFmv1MVqj6QfpS0WY2kTNqLPJl7rFde9O16z8extHi03+nmssk3SuR5xrYkh4kUTHmoV10n9EX0m/8x4nx7jPW1Mq5/9mP+98r7X1sdo0rHoeWmffWzk5c3Pr/d+afVg//j/Q4w2po1hAAZgAAZgAAZgAAZgAAZgAAZgAAZgAAZgAAZgYJiBphDXV8+cLcvhuAjQl/ZRMaXUyZJ17fetCIp0dQEnQSYxqKjrYqEQFBXpAq9j5dpRKZddKqRJKwlArQfc9fyW4OsuKzrSxGNknWvtkwyUIK4GVR6RJdl6fUT8SlpLrFsa61gq52r197ro+ZIkqtIem4SPyHa1db2i0u9XdVsqhd7dey1a2GRvx9jSlCudttaedeHeu/stS0uuSQbRumhtYotE/vjTCqFUOH7SBHf03LyfPdW00qA7I85vvM1VphhVZgDJUnFaTeqqP/RcSeLK+3+8JJXS8mv8aM3ujkefSJzckRYJrehycaS663mVLj2tTccq27RWuWVOiI2PtPtpv8n9O5daemb1U9o7IF6G1zWpP+Ln6nfG+3V7P0/18e5jWuNB2SSi3Ot37U/MGDCyxnW9YzRr/Cfx5nwmZQVJOp99/EMYBmAABmAABmAABmAABmAABmAABmAABmAABmAABmCg2RiYdHGtSNieV3aVI3xdEviX/fry3tIhnzkbul/YFro3bRslqjyaVWvV6lzJSGvoYjEMnm8Jxf6BUeLMxV+WtJJYjEYeeypmrf3rHSkJppTN/QffL+/zY/GtnknSUiI9Kj/0WRHeUUHv1yr6Oqn8PPVXGUni2sTd7+8KSrnr99FWbR0X1xKyknu6JnpuPZ/VD1pzWv2k9OvxNV3rKdMix+9YECTiVU9FW3dteLFizWxFe0vSqx0l0Wyywby7TSyqfztWry+L57x10LOoH+MR485vkrhW2WLKIsRnzLZI/aEMcZ8lrrz/fZyobO0b/PKr8mSOvM+SeF6xaONSqcejYyDx3Jg09jZoW/pA0PrjWdeUZVud6ZSzyk46duX4SZvYIJ69nko3Hh+PSb/7GsLql6Sy4/sY79NjvDsnSWPaj0XHoXOQNEb9WJ6tj/+OR9bYezOJyeg+5zPrb1qe+3IO/1CFARiAARiAARiAARiAARiAARiAARiAARiAARiAARiYLAYmXVzHHzwuAvTlfZLQ9esk/hS523LHgtD/3uHc0s6lQq1f8ktQSJK6dLVU3HMWmSD3OqVtdW3as6Q9p8R7y5xFFfdU+bnqXyoNS/IVq8tp0hXFrQjhlt/fFTpXPVkh7CTPJZUlQCREOlevt3srclbn1yuv+945FHp37rbo8Vz9VCoFXZOWJt3bV32g9cwlpRUd72JJbaYoeElXTTYo//7gSus3bzuXTXquWgStTZRYs94ivQfPna+QmM6v18XrGt1KXqt9rV0j0drRc/TZxZX6JSqo7HNCNKcksNpX2QgUiR4tT5HJAx8crdgXPd7Iz+U2WL4iKJV+VtkTKa7Vz21L7i+npvd65n0HeF3VL1nP5McY78vzvZebfbz399u7JWlMO0P+LvG+1zb+nokey/NZvGqiltam1/tMk5h0v7Rrr35x1rKOZJ2Tdi37+UcoDMAADMAADMAADMAADMAADMAADMAADMAADMAADMBAMzAwdcV1qRQGjn4SFC3Zue5Zi7T1BlVUpaLUsiJFXSrklVZeduGT46Fl1kKLVlY0advdfygLUj8nbVuPyPIo77g0yVN/lyoVzzgiiZLkm/bFI67TniXvfkVAqy8kaU2KSzSvWZ/9s2K1RUdL2Getf62I8Za5i4OEotq23EalkqX0FRdKJS/xo2hrRWer3t52LpvKAnzN+qrpuz3SOi3Nubd5uS6xaGRvN7GpMtQuXk8/5lsX10l9FX8GXeNitW//OxVyq3DilE080OQDffbyx2vr46KCu5R28Dp7X4xLncT8/neDUpgXIxHg3ld56hlt36T+SKo3433O8MSSKTze1a/OyUSnCrd7j0zO0YSUpEwd0XepLZkwY3bo2b4z9wSuJG7Zxz9OYQAGYAAGYAAGYAAGYAAGYAAGYAAGYAAGYAAGYAAGJouBKSmuJUM7n3zOopDjYlNRahJ0JgTXPhOUijypcV385ZVWXoaEo9a5loxVenAJUYlRP561rUdkqbz+Q0fCldNnKu5Rrv+a9RX7o/d3gZhXCjZUXBeL4fJbB6wv1EZpkebR+vpnfzalhvc1zP2Yby1q+ZE1lhZc5+gZo7JYkfiKOpaUVoS8IrP1WdeXy4+kpxY3kvZ9Bw6mtqekp/pd6zZ7WV4f37rkitbFj8W3Lm09Mjx+vF5xXRarpdIwo7+7M7QuWGbiPmsyR/z+eX5XeRJqSsHufeXtm2dsafxqIkheRrPqpLrE099rvfjeHa+Fy3v2ldeO9zK8r/LUU9d4f5XbN0XGe/mM987UseRtpK3z0mzj3evonCizgyYS+X5t/VgSv/Zcd92T++9DtFz/rGUpNOFHk3iyJp343z0Jbo1FvR+9DLb8AxMGYAAGYAAGYAAGYAAGYAAGYAAGYAAGYAAGYAAGYGCqMDClxLWiXXte3mURqlfPfln5xfzImrySpFp3uPDxp5XHY5LJZUleaRXtUF93WqJTQnCo81LmvfzaekWWXx/d5hF+tpbz3MWh7+33ctWvqrguFstyMlqXis/FoqUUV/SfUlxLuHdvSU+RXnHtSB953yTJID9fke/tyx8Oxe4eezadmySLLSp79sKg8/3apPJdcIudpBTlam8JcEX5u6D18qJbF1lJdYmeZ59LJUv/23/og3Ldoue4uK4lVbiY1HV6Hgl28dn37qFR0jZ6n6FLXeHSsy9kR8GnRM1qEocmiWjcubzOw6bfP6kv/FitW9239/U3E9syqSzvq7zvgIkS10l1zdOmjPfrNnFBkdFjHe8VfVAqpaa8d4YS31XFYigWslPlV9wn9jdKyxAoRXjPth2WMaB10b3hWkvrKL71/tC4t+c++fmo41n30AQfTcbR+L0wc56tpd3oyS1Z9+cY/1iGARiAARiAARiAARiAARiAARiAARiAARiAARiAARiIMjClxHVpaCjoJ/oA+nytrd0iavXFu77kL0fDSgzuesNEXvwaF2bVpJXE6JXPT1fcU6JaQlDCLlFYxASE31vnpkUeSzamHfPro1uXaFn3L5z4zMq88scvKuofLSf6OUtca9KA2qrziacTo/nU5opqbbvnwdC1YXO41tpevmfWc0fv75+9b9KeTbLo4sOrKiIQdW5cFpeuXQudWqtbdb52IwIxrXxFzp+fMTt0bdxarrvqpHbUWuaK9Pc6pm1dZMXrknZ+1n4X19rGz0t6BmdCz6wI82rCOlqmZFWjhJXa68Lv5tvYi94j6XPScySdl2efnj+NmaTrva+03EA05XLaZ639rujXpP5IKj+Le5XBeB/+Y1yNgYke70l9mbbPGUrjTu/FzrXP2ASVrAkv8fI1FrVWvSafKHra3mVPPB00IUhC287XMgh79plwFkvxv1PxMuO/q256j3Zv3h70ftffOrEff//Fr+N3/hEJAzAAAzAAAzAAAzAAAzAAAzAAAzAAAzAAAzAAAzAwXgxMKXEdbwR92a5oXkkyyUkJED9HX8pfWv+8iciktX1dliSJa4kCiSVF2Cq6WmV5udpamuqVa61sifK8QmKiRZbSzCoiVhKk751DVeWcInttHeqHHx91rkfWSuzG5bWiG9VOFqlcKlW0ldor67mj7eqfvW/SZJBSP8ejyHVuXBarXq2L7xsVpZhW/uD5FotwlBxSmnGvTy1bF1nxutRShp8rBjU5IkmUJj2Di+veXXtSI6zVJrrW7zEe26x6x++X9Bzxc/L+rue39cJTJo7Ey/G+SnoHxM/V796+Sf2RdH4W9yqj0eKa8d7Y8a5JUhpLaRMZtL9z1VMW6az3TNJ5/t5URHPWMgRRfvS+1vIBEsrRlN8ms5evMG763/+w/PetQmbnZF/3UxS/JmMU+/rL7wO9AxWBHd0XrRuf+ccoDMAADMAADMAADMAADMAADMAADMAADMAADMAADMDAeDIwJcR1y51Lg9IZe0NYyvBXdoXW+UssIi0u4vSFfNvdfzDpp62Ek7709+u1dWEWlVaKErb0yiPpWXWf6DX6LJEgcXvhjjtNcpqQ2PdOLnldTWRpfdLc0dHvHzFxnirRSiWTKh49J/muyPSoCIk/m8pSylm1V/zYWH7Peu6kcr1vdF38eHGgEK6eOTuqvXVuVBbrebUmbTRlsJeVVr6iGjtWrLZU83nTv3uZvnUZGq2LH6t1q/6oR1ynMnH9uom4Rvdv/Lm6X3wpN0dpfREvM8/veu62ZQ/mlm7eV9F3QNZ9Gi2uGe/Df9yzGJjs8a4sC6qf1kpPYsMZSnpXJZ1fbZ/+TkmA9793eNQ7TtcqVbj+Huq9oB9FTBd7ehPrVu1eiGv+cVmNEY7DCAzAAAzAAAzAAAzAAAzAAAzAAAzAAAzAAAzAwEQz0PTiWuLABbIEglI2S0gOfHB0lIRVqlNFXCoqWOt9Xn7rQKpwcFmiiLO+/e+a6L4wc37o3rQtNSW06tGxcu3wWqKfnjSJoGg3W993x+uJoiHaoZIbuofKiEfnKdq5FmksIX3h9nmJYlb3lHhV2u6rX5zNLTWmgriOtmf0s2RpVFr27XvH+jUpGt77Pkk2ab1YRY8nXRe9X9pnF1nNKq6VIaD//SO5mUh7zrT9pStXLVpUa4Xnkf9ZfZF2j7T9tvb8zPmpYyJ+nffVeIprxnv1P+r1MNBs4z3pXRLnTe+UtKwUOlfjRVHWmmA06tqRSGr9Pexc/ZRJa/3d0USrPEsYJJVnk7DWPRu6t7x8I1X4yrWkCq8haj2pXdlXfczTRrQRDMAADMAADMAADMAADMAADMAADMAADMAADMBAGgNNL66jFVf0XVLEsIS1vsDXGtdKv6u1ipPOi5alSFyJX4tcmzHbUqZmCQMJB0Vvty9fUSEWyhFwSqH9+LpMiSC5kZYeOEsaX35jX2hdvNzubcJ7xerhZ81IaT1w+ENbWzW6tnP0+ZM+Z9Uh6fy8+7KEfVzg2+8r15rgzyWDRiSD2t7bVvLUItcT0parzvWIsrzP6mU3q7jWxI9Lz26qW8xXawcbV5qcsWJ1xbriadcpJbsmf6jvlJZZ6ZTr+el56dWgCGaNZ42VaIaGtHtPhLh2JuN1yBprjPfqf7CbZbw7Q1XfVaVS6N291yYn5U0ZHmXGs4yIcRsru/eWJ2lJYKs9rpw+kzpRK1pW9LNFeI8se6ElN7o2bR21NEb0fD5XZ5M2oo1gAAZgAAZgAAZgAAZgAAZgAAZgAAZgAAZgAAZgoH4GppS4rujoYtG+qO9cuc4krtYELRw7kfuLe8luiWhFhg4c/SRd5BWLoff1Ny0teFoE9+C58ybfJM0kzzuffC5RnGp/WiSqRFbbsgfS1x8uFi2CXFHZLtt7d72RGJknWa105rWmhM6SaRVtX2NEWpawTyrX5W/nmvWJz5d0TVRkxY9Lzqg92v/wSLj0zCaLMFQkrGRn/Nyx/u51Hw9xrXW9Va7kvtZfV2aB6DNofdqWOYtC29IHbPJGXAD37twdtN67rtN6yGN5Vgk78SzprDVxVSf1gcnj2+aMWoM8617iWOPGuB5JgVzX5xmzLcvA4J/P5Xo2l46qd1L9xI1EntpKbdm59hmro8ZJ0vnxfYz3fGup+5hplvGu/tX7InFSzZr1FfurrXFdLkOTjX471/jRGLxy/GR1hkYitC+tf354otKCZaHvnUMVk7KU7lvZOjSm/e+PJlcps4LOHfzyK/ubIpbjfPJ7/f9wou1oOxiAARiAARiAARiAARiAARiAARiAARiAARiAARgYHwamlLhWFHXh+EmTCq0Lltl24MhHQRG29QCiL/1T1wctlUxoty9/OPS8squcrjztPipH641KIEhWJKWElQBLi+q2CPGUdVSj97S05sseCIWPP02V7RLWEhe1prs2cZ2Rfjxaj1o+d295xVK8a93pPNdJsthkghzt4eVliWs/RxGJ4mZY8MwPhU9zyKMaJb0knESSJjnUEu3udYxu1R+qa1SUWqrgx9cZZybAPjt9o00V1fnqnqDIyTTx2zJ7kbGRty+i9Un6rEhQpRp2KSf+lf2gWsaDpLImel81ca366Pk0caUczb1gWbjWfvFGm2fwwXifmuNd7Oo9Xe/flbFwrHtfPXPWsiK0zl1sE6a6NmwO11rT04frfjqucWcTU2KTPzSp68rnkfdEBrNjqTvXjs8/0mhX2hUGYAAGYAAGYAAGYAAGYAAGYAAGYAAGYAAGYOBmYqApxbW+gLdUzyNfsEvSKhqv67kXgkT1eEePKXLb7pWwjnYmHCNR4JMq7RQhvmtPUER5Zl0T5IXSPEt417tmaq33a+T5YqZn+86qaW41oUDRyib+E9qgkXUaa1liXf0Rl8ziX+ukN9MzdL+wLbQtvT9zQsVY26PR10tcixtNYKlWtsaGJiTkjeauVl7DjjPeM/tuKox3jW9N7tF7SVkhujZuCYWPjgXxWTMnpVIYuthhWQIs2vuxtXX9Laj5vk3+LuV5+Ic9DMAADMAADMAADMAADMAADMAADMAADMAADMAADEwNBppOXAPO1ACHfqKfYAAGYAAGYAAGYAAGYACyyM0yAAAJcklEQVQGYAAGYAAGYAAGYAAGYAAGYAAGYAAGYAAGGsUA4ppIsdqj+mgz2gwGYAAGYAAGYAAGYAAGYAAGYAAGYAAGYAAGYAAGYAAGYAAGYAAGYKCBDCCuG9iYjZpNQDnMTIEBGIABGIABGIABGIABGIABGIABGIABGIABGIABGIABGIABGIABGLiZGEBcI66ZCQIDMAADMAADMAADMAADMAADMAADMAADMAADMAADMAADMAADMAADMAADk8oA4hoAJxXAm2mWCM/KrCgYgAEYgAEYgAEYgAEYgAEYgAEYgAEYgAEYgAEYgAEYgAEYgAEYSGYAcY24RlzDAAzAAAzAAAzAAAzAAAzAAAzAAAzAAAzAAAzAAAzAAAzAAAzAAAzAwKQygLgGwEkFkBklyTNKaBfaBQZgAAZgAAZgAAZgAAZgAAZgAAZgAAZgAAZgAAZgAAZgAAZg4GZiAHGNuEZcwwAMwAAMwAAMwAAMwAAMwAAMwAAMwAAMwAAMwAAMwAAMwAAMwAAMwMCkMoC4BsBJBfBmmiXCszIrCgZgAAZgAAZgAAZgAAZgAAZgAAZgAAZgAAZgAAZgAAZgAAZgAAaSGUBcI64R1zAAAzAAAzAAAzAAAzAAAzAAAzAAAzAAAzAAAzAAAzAAAzAAAzAAAzAwqQwgrgFwUgFkRknyjBLahXaBARiAARiAARiAARiAARiAARiAARiAARiAARiAARiAARiAARi4mRhAXCOuEdcwAAMwAAMwAAMwAAMwAAMwAAMwAAMwAAMwAAMwAAMwAAMwAAMwAAMwMKkMIK4BcFIBvJlmifCszIqCARiAARiAARiAARiAARiAARiAARiAARiAARiAARiAARiAARiAgWQGENeIa8Q1DMAADMAADMAADMAADMAADMAADMAADMAADMAADMAADMAADMAADMAADEwqA4hrAJxUAJlRkjyjhHahXWAABmAABmAABmAABmAABmAABmAABmAABmAABmAABmAABmAABm4mBhDXiGvENQzAAAzAAAzAAAzAAAzAAAzAAAzAAAzAAAzAAAzAAAzAAAzAAAzAAAxMKgOIawCcVABvplkiPCuzomAABmAABmAABv7/9u5Yp2EoCKLo//8ytmX0LDkKMFWUMMUeJBpo8OqkupPAAAMMMMAAAwwwwAADDDDAAAMMMMAAAwxkA8K1cC1cM8AAAwwwwAADDDDAAAMMMMAAAwwwwAADDDDAAAMMMMAAA1UDwjWAVYAWJXlR4i7uwgADDDDAAAMMMMAAAwwwwAADDDDAAAMMMMAAAwwwMMmAcC1cC9cMMMAAAwwwwAADDDDAAAMMMMAAAwwwwAADDDDAAAMMMMBA1YBwDWAV4KSViGe1imKAAQYYYIABBhhggAEGGGCAAQYYYIABBhhggAEGGGAgGxCuhWvhmgEGGGCAAQYYYIABBhhggAEGGGCAAQYYYIABBhhggAEGGKgaEK4BrAK0KMmLEndxFwYYYIABBhhggAEGGGCAAQYYYIABBhhggAEGGGCAgUkGhGvhWrhmgAEGGGCAAQYYYIABBhhggAEGGGCAAQYYYIABBhhggAEGqgaEawCrACetRDyrVRQDDDDAAAMMMMAAAwwwwAADDDDAAAMMMMAAAwwwwAAD2YBwLVwL1wwwwAADDDDAAAMMMMAAAwwwwAADDDDAAAMMMMAAAwwwwEDVgHANYBWgRUlelLiLuzDAAAMMMMAAAwwwwAADDDDAAAMMMMAAAwwwwAADDEwyIFwL18I1AwwwwAADDDDAAAMMMMAAAwwwwAADDDDAAAMMMMAAAwwwUDUgXANYBThpJeJZraIYYIABBhhggAEGGGCAAQYYYIABBhhggAEGGGCAAQYYyAaEa+FauGaAAQYYYIABBhhggAEGGGCAAQYYYIABBhhggAEGGGCAAQaqBoRrAKsALUryosRd3IUBBhhggAEGGGCAAQYYYIABBhhggAEGGGCAAQYYYGCSAeFauBauGWCAAQYYYIABBhhggAEGGGCAAQYYYIABBhhggAEGGGCAgaoB4RrAKsBJKxHPahXFAAMMMMAAAwwwwAADDDDAAAMMMMAAAwwwwAADDDDAQDYgXAvXwjUDDDDAAAMMMMAAAwwwwAADDDDAAAMMMMAAAwwwwAADDDBQNSBcA1gFaFGSFyXu4i4MMMAAAwwwwAADDDDAAAMMMMAAAwwwwAADDDDAAAOTDAjXwrVwzQADDDDAAAMMMMAAAwwwwAADDDDAAAMMMMAAAwwwwAADDFQNCNcAVgFOWol4VqsoBhhggAEGGGCAAQYYYIABBhhggAEGGGCAAQYYYIABBrIB4Vq4Fq4ZYIABBhhggAEGGGCAAQYYYIABBhhggAEGGGCAAQYYYICBqgHhGsAqQIuSvChxF3dhgAEGGGCAAQYYYIABBhhggAEGGGCAAQYYYIABBhiYZEC4Fq6FawYYYIABBhhggAEGGGCAAQYYYIABBhhggAEGGGCAAQYYYKBqQLgGsApw0krEs1pFMcAAAwwwwAADDDDAAAMMMMAAAwwwwAADDDDAAAMMMJANCNfCtXDNAAMMMMAAAwwwwAADDDDAAAMMMMAAAwwwwAADDDDAAAMMVA1c4XrbtuofYVWQVwXu4i4MMMAAAwwwwAADDDDAAAMMMMAAAwwwwAADDDDAAAMMMDDBgHBtOWG0wAADDDDAAAMMMMAAAwwwwAADDDDAAAMMMMAAAwwwwAADDFQNXOH6OI7qHzFhIeAZLWEYYIABBhhggAEGGGCAAQYYYIABBhhggAEGGGCAAQYYYICBbOAK1+d5nj4uPB8IHHdhgAEGGGCAAQYYYIABBhhggAEGGGCAAQYYYIABBhhggAEGPmdgtepHuPau688dGmK3ZYABBhhggAEGGGCAAQYYYIABBhhggAEGGGCAAQYYYIABBrKB1aof4Xq963rfdx8Z7rPrGWCAAQYYYIABBhhggAEGGGCAAQYYYIABBhhggAEGGGCAAQb+xcBq1OvrR7gWr3Pht3xwFwYYYIABBhhggAEGGGCAAQYYYIABBhhggAEGGGCAAQYYYOC9Bu5oHcP1+uF6K7b/ef3eo0PsngwwwAADDDDAAAMMMMAAAwwwwAADDDDAAAMMMMAAAwwwwMDX1aJXk37++vOO6+df3gFbxPYC8gJigAEGGGCAAQYYYIABBhhggAEGGGCAAQYYYIABBhhggAEGXjWwmvP6/h2s7z79DaG52NBpZgICAAAAAElFTkSuQmCC;clipPath=inset(20.18% 55% 4.39% 0.67%);" vertex="1" parent="1">
          <mxGeometry x="840" width="576" height="186.23" as="geometry" />
        </mxCell>
        <mxCell id="lTusFkphazR6k-LGd3tF-12" style="edgeStyle=orthogonalEdgeStyle;rounded=0;orthogonalLoop=1;jettySize=auto;html=1;exitX=0.5;exitY=1;exitDx=0;exitDy=0;exitPerimeter=0;entryX=0.5;entryY=0;entryDx=0;entryDy=0;" edge="1" parent="1" source="lTusFkphazR6k-LGd3tF-2" target="lTusFkphazR6k-LGd3tF-3">
          <mxGeometry relative="1" as="geometry" />
        </mxCell>
        <mxCell id="lTusFkphazR6k-LGd3tF-2" value="Sass下发修改人像库请求" style="strokeWidth=2;html=1;shape=mxgraph.flowchart.start_1;whiteSpace=wrap;fillColor=#d5e8d4;strokeColor=#82b366;" vertex="1" parent="1">
          <mxGeometry x="1180" y="210" width="100" height="60" as="geometry" />
        </mxCell>
        <mxCell id="lTusFkphazR6k-LGd3tF-13" style="edgeStyle=orthogonalEdgeStyle;rounded=0;orthogonalLoop=1;jettySize=auto;html=1;exitX=0.5;exitY=1;exitDx=0;exitDy=0;entryX=0.5;entryY=0;entryDx=0;entryDy=0;" edge="1" parent="1" source="lTusFkphazR6k-LGd3tF-3" target="lTusFkphazR6k-LGd3tF-4">
          <mxGeometry relative="1" as="geometry" />
        </mxCell>
        <mxCell id="lTusFkphazR6k-LGd3tF-17" value="Yes" style="edgeLabel;html=1;align=center;verticalAlign=middle;resizable=0;points=[];" vertex="1" connectable="0" parent="lTusFkphazR6k-LGd3tF-13">
          <mxGeometry x="-0.2667" y="1" relative="1" as="geometry">
            <mxPoint as="offset" />
          </mxGeometry>
        </mxCell>
        <mxCell id="lTusFkphazR6k-LGd3tF-3" value="参数校验" style="rhombus;whiteSpace=wrap;html=1;fillColor=#fff2cc;strokeColor=#d6b656;" vertex="1" parent="1">
          <mxGeometry x="1195" y="290" width="70" height="60" as="geometry" />
        </mxCell>
        <mxCell id="lTusFkphazR6k-LGd3tF-18" style="edgeStyle=orthogonalEdgeStyle;rounded=0;orthogonalLoop=1;jettySize=auto;html=1;exitX=0.5;exitY=1;exitDx=0;exitDy=0;entryX=0.5;entryY=0;entryDx=0;entryDy=0;" edge="1" parent="1" source="lTusFkphazR6k-LGd3tF-4" target="lTusFkphazR6k-LGd3tF-5">
          <mxGeometry relative="1" as="geometry" />
        </mxCell>
        <mxCell id="lTusFkphazR6k-LGd3tF-4" value="从数据表Repository中根据库ID查询" style="rounded=0;whiteSpace=wrap;html=1;fillColor=#dae8fc;strokeColor=#6c8ebf;" vertex="1" parent="1">
          <mxGeometry x="1170" y="380" width="120" height="50" as="geometry" />
        </mxCell>
        <mxCell id="lTusFkphazR6k-LGd3tF-21" style="edgeStyle=orthogonalEdgeStyle;rounded=0;orthogonalLoop=1;jettySize=auto;html=1;exitX=0.5;exitY=1;exitDx=0;exitDy=0;entryX=0.5;entryY=0;entryDx=0;entryDy=0;" edge="1" parent="1" source="lTusFkphazR6k-LGd3tF-5" target="lTusFkphazR6k-LGd3tF-7">
          <mxGeometry relative="1" as="geometry" />
        </mxCell>
        <mxCell id="lTusFkphazR6k-LGd3tF-22" value="Yes" style="edgeLabel;html=1;align=center;verticalAlign=middle;resizable=0;points=[];" vertex="1" connectable="0" parent="lTusFkphazR6k-LGd3tF-21">
          <mxGeometry x="-0.05" y="2" relative="1" as="geometry">
            <mxPoint as="offset" />
          </mxGeometry>
        </mxCell>
        <mxCell id="lTusFkphazR6k-LGd3tF-5" value="库存在" style="rhombus;whiteSpace=wrap;html=1;fillColor=#fff2cc;strokeColor=#d6b656;" vertex="1" parent="1">
          <mxGeometry x="1195" y="450" width="70" height="60" as="geometry" />
        </mxCell>
        <mxCell id="lTusFkphazR6k-LGd3tF-6" value="返回失败" style="strokeWidth=2;html=1;shape=mxgraph.flowchart.start_1;whiteSpace=wrap;fillColor=#f8cecc;strokeColor=#b85450;" vertex="1" parent="1">
          <mxGeometry x="1300" y="460" width="84" height="40" as="geometry" />
        </mxCell>
        <mxCell id="lTusFkphazR6k-LGd3tF-23" style="edgeStyle=orthogonalEdgeStyle;rounded=0;orthogonalLoop=1;jettySize=auto;html=1;exitX=1;exitY=0.5;exitDx=0;exitDy=0;entryX=0;entryY=0.5;entryDx=0;entryDy=0;" edge="1" parent="1" source="lTusFkphazR6k-LGd3tF-7" target="lTusFkphazR6k-LGd3tF-8">
          <mxGeometry relative="1" as="geometry" />
        </mxCell>
        <mxCell id="lTusFkphazR6k-LGd3tF-29" value="No" style="edgeLabel;html=1;align=center;verticalAlign=middle;resizable=0;points=[];" vertex="1" connectable="0" parent="lTusFkphazR6k-LGd3tF-23">
          <mxGeometry x="-0.0857" y="-1" relative="1" as="geometry">
            <mxPoint as="offset" />
          </mxGeometry>
        </mxCell>
        <mxCell id="lTusFkphazR6k-LGd3tF-24" style="edgeStyle=orthogonalEdgeStyle;rounded=0;orthogonalLoop=1;jettySize=auto;html=1;exitX=0.5;exitY=1;exitDx=0;exitDy=0;entryX=0.5;entryY=0;entryDx=0;entryDy=0;" edge="1" parent="1" source="lTusFkphazR6k-LGd3tF-7" target="lTusFkphazR6k-LGd3tF-9">
          <mxGeometry relative="1" as="geometry" />
        </mxCell>
        <mxCell id="lTusFkphazR6k-LGd3tF-30" value="Yes" style="edgeLabel;html=1;align=center;verticalAlign=middle;resizable=0;points=[];" vertex="1" connectable="0" parent="lTusFkphazR6k-LGd3tF-24">
          <mxGeometry x="-0.2667" y="-1" relative="1" as="geometry">
            <mxPoint as="offset" />
          </mxGeometry>
        </mxCell>
        <mxCell id="lTusFkphazR6k-LGd3tF-7" value="是否为黑&lt;div&gt;白名单库&lt;/div&gt;" style="rhombus;whiteSpace=wrap;html=1;fillColor=#fff2cc;strokeColor=#d6b656;" vertex="1" parent="1">
          <mxGeometry x="1190" y="550" width="80" height="80" as="geometry" />
        </mxCell>
        <mxCell id="lTusFkphazR6k-LGd3tF-8" value="修改人像库名称、备注" style="rounded=0;whiteSpace=wrap;html=1;fillColor=#dae8fc;strokeColor=#6c8ebf;" vertex="1" parent="1">
          <mxGeometry x="1340" y="570" width="90" height="40" as="geometry" />
        </mxCell>
        <mxCell id="lTusFkphazR6k-LGd3tF-25" style="edgeStyle=orthogonalEdgeStyle;rounded=0;orthogonalLoop=1;jettySize=auto;html=1;exitX=0.5;exitY=1;exitDx=0;exitDy=0;entryX=0.5;entryY=0;entryDx=0;entryDy=0;" edge="1" parent="1" source="lTusFkphazR6k-LGd3tF-9" target="lTusFkphazR6k-LGd3tF-10">
          <mxGeometry relative="1" as="geometry" />
        </mxCell>
        <mxCell id="lTusFkphazR6k-LGd3tF-9" value="修改人像库名称、备注" style="rounded=0;whiteSpace=wrap;html=1;fillColor=#dae8fc;strokeColor=#6c8ebf;" vertex="1" parent="1">
          <mxGeometry x="1185" y="660" width="90" height="40" as="geometry" />
        </mxCell>
        <mxCell id="lTusFkphazR6k-LGd3tF-10" value="EX同步路由" style="rounded=0;whiteSpace=wrap;html=1;fillColor=#dae8fc;strokeColor=#6c8ebf;" vertex="1" parent="1">
          <mxGeometry x="1185" y="730" width="90" height="40" as="geometry" />
        </mxCell>
        <mxCell id="lTusFkphazR6k-LGd3tF-11" value="在创建人像库时，会将对应的库资源加载并保存，修改人像库时，也需要修改对应的关系" style="text;html=1;align=center;verticalAlign=middle;whiteSpace=wrap;rounded=0;strokeColor=#9673a6;dashed=1;fillColor=#e1d5e7;" vertex="1" parent="1">
          <mxGeometry x="990" y="705" width="140" height="90" as="geometry" />
        </mxCell>
        <mxCell id="lTusFkphazR6k-LGd3tF-14" value="抛出异常" style="strokeWidth=2;html=1;shape=mxgraph.flowchart.start_1;whiteSpace=wrap;fillColor=#f8cecc;strokeColor=#b85450;" vertex="1" parent="1">
          <mxGeometry x="1300" y="300" width="84" height="40" as="geometry" />
        </mxCell>
        <mxCell id="lTusFkphazR6k-LGd3tF-15" style="edgeStyle=orthogonalEdgeStyle;rounded=0;orthogonalLoop=1;jettySize=auto;html=1;exitX=1;exitY=0.5;exitDx=0;exitDy=0;entryX=0;entryY=0.5;entryDx=0;entryDy=0;entryPerimeter=0;" edge="1" parent="1" source="lTusFkphazR6k-LGd3tF-3" target="lTusFkphazR6k-LGd3tF-14">
          <mxGeometry relative="1" as="geometry" />
        </mxCell>
        <mxCell id="lTusFkphazR6k-LGd3tF-16" value="No" style="edgeLabel;html=1;align=center;verticalAlign=middle;resizable=0;points=[];" vertex="1" connectable="0" parent="lTusFkphazR6k-LGd3tF-15">
          <mxGeometry x="-0.0857" relative="1" as="geometry">
            <mxPoint as="offset" />
          </mxGeometry>
        </mxCell>
        <mxCell id="lTusFkphazR6k-LGd3tF-19" style="edgeStyle=orthogonalEdgeStyle;rounded=0;orthogonalLoop=1;jettySize=auto;html=1;exitX=1;exitY=0.5;exitDx=0;exitDy=0;entryX=0;entryY=0.5;entryDx=0;entryDy=0;entryPerimeter=0;" edge="1" parent="1" source="lTusFkphazR6k-LGd3tF-5" target="lTusFkphazR6k-LGd3tF-6">
          <mxGeometry relative="1" as="geometry" />
        </mxCell>
        <mxCell id="lTusFkphazR6k-LGd3tF-20" value="No" style="edgeLabel;html=1;align=center;verticalAlign=middle;resizable=0;points=[];" vertex="1" connectable="0" parent="lTusFkphazR6k-LGd3tF-19">
          <mxGeometry x="-0.2" y="1" relative="1" as="geometry">
            <mxPoint as="offset" />
          </mxGeometry>
        </mxCell>
        <mxCell id="lTusFkphazR6k-LGd3tF-26" value="返回成功" style="strokeWidth=2;html=1;shape=mxgraph.flowchart.start_1;whiteSpace=wrap;fillColor=#d5e8d4;strokeColor=#82b366;" vertex="1" parent="1">
          <mxGeometry x="1190" y="800" width="80" height="40" as="geometry" />
        </mxCell>
        <mxCell id="lTusFkphazR6k-LGd3tF-27" style="edgeStyle=orthogonalEdgeStyle;rounded=0;orthogonalLoop=1;jettySize=auto;html=1;exitX=0.5;exitY=1;exitDx=0;exitDy=0;entryX=1;entryY=0.5;entryDx=0;entryDy=0;entryPerimeter=0;" edge="1" parent="1" source="lTusFkphazR6k-LGd3tF-8" target="lTusFkphazR6k-LGd3tF-26">
          <mxGeometry relative="1" as="geometry" />
        </mxCell>
        <mxCell id="lTusFkphazR6k-LGd3tF-28" style="edgeStyle=orthogonalEdgeStyle;rounded=0;orthogonalLoop=1;jettySize=auto;html=1;exitX=0.5;exitY=1;exitDx=0;exitDy=0;entryX=0.5;entryY=0;entryDx=0;entryDy=0;entryPerimeter=0;" edge="1" parent="1" source="lTusFkphazR6k-LGd3tF-10" target="lTusFkphazR6k-LGd3tF-26">
          <mxGeometry relative="1" as="geometry" />
        </mxCell>
      </root>
    </mxGraphModel>
  </diagram>
</mxfile>
